<svg width="32" height="30" viewBox="0 0 32 30" fill="none" xmlns="http://www.w3.org/2000/svg">
<rect width="32" height="30" rx="7" fill="#FF6809"/>
<mask id="path-2-outside-1_55_642" maskUnits="userSpaceOnUse" x="4.33337" y="3" width="24" height="24" fill="black">
<rect fill="white" x="4.33337" y="3" width="24" height="24"/>
<path d="M16.0231 4.01844C15.8478 4.07416 15.6726 4.22936 15.5858 4.40447C15.3705 4.84223 15.5524 5.44315 15.948 5.60035L16.0397 5.63815L16.0347 5.96449C16.0314 6.14357 16.0264 6.29281 16.0231 6.29679C16.0197 6.30077 15.6776 6.22316 15.2603 6.12168C14.8448 6.02219 13.3894 5.67198 12.0259 5.34565C10.6624 5.01932 9.36057 4.70692 9.13026 4.6512C8.90161 4.59549 8.70801 4.54972 8.70133 4.54972C8.69466 4.54972 8.68798 4.52783 8.68798 4.49998C8.68798 4.34875 8.54445 4.19155 8.40593 4.19155C8.31747 4.19155 8.21734 4.25125 8.16894 4.33283C8.13055 4.3985 8.10885 4.55171 8.12721 4.63727C8.14056 4.70294 8.214 4.80243 8.27575 4.84024C8.33917 4.88003 8.47102 4.88003 8.53444 4.84024C8.59118 4.80442 8.67129 4.69896 8.67129 4.65717C8.67129 4.64125 8.67964 4.62932 8.69132 4.62932C8.72136 4.62932 9.02845 4.73279 9.04347 4.7487C9.05015 4.75467 8.44431 6.94149 7.69829 9.60586L6.33976 14.4491L5.83573 14.4551C5.41682 14.459 5.33337 14.465 5.33337 14.4869C5.33337 14.5545 5.53031 14.8232 5.70055 14.9843C6.23294 15.4937 6.97563 15.8081 7.98702 15.9554C8.2624 15.9952 8.37422 15.9992 9.03012 15.9992C9.63428 16.0011 9.80952 15.9952 10.0148 15.9653C11.0362 15.8181 11.7272 15.5216 12.2045 15.0222C12.348 14.8709 12.5433 14.5585 12.5433 14.4789C12.5433 14.467 12.4315 14.459 12.2095 14.459C12.0259 14.459 11.8757 14.457 11.8757 14.4531C11.8757 14.4491 11.7522 14.0073 11.602 13.4721C11.3066 12.4234 9.94304 7.58022 9.4557 5.84709C9.29215 5.26606 9.1603 4.7885 9.1653 4.7885C9.17031 4.7885 9.40397 4.87008 9.68602 4.96957C10.1583 5.13473 10.5939 5.28795 11.7756 5.70382C12.0192 5.78938 12.605 5.99433 13.0773 6.16148C13.5497 6.32862 14.1355 6.53357 14.3791 6.61914C14.6228 6.7047 15.0801 6.86587 15.3972 6.9773C15.7143 7.08873 15.9747 7.18226 15.978 7.18624C15.9813 7.19022 15.9563 7.78318 15.9246 8.5035C15.8912 9.22381 15.8495 10.1312 15.8311 10.5192C15.8128 10.9072 15.7827 11.5619 15.7644 11.9718C15.746 12.3817 15.716 13.0363 15.6976 13.4243C15.6793 13.8123 15.6342 14.7933 15.5975 15.6032C15.5608 16.413 15.5157 17.398 15.4973 17.792C15.479 18.186 15.4456 18.9202 15.4222 19.4236C15.3989 19.9271 15.3655 20.6693 15.3471 21.0752C15.3288 21.4791 15.3021 22.0403 15.2887 22.3188C15.2754 22.5974 15.257 23.0093 15.247 23.2341C15.237 23.459 15.217 23.6958 15.2036 23.7615C15.1418 24.0599 14.9149 24.3027 14.5777 24.434C14.4192 24.4977 14.2807 24.5236 13.4445 24.6469C12.0676 24.8519 11.7005 24.9613 11.2949 25.2876C11.0813 25.4608 10.8893 25.7155 10.8159 25.9264L10.7909 26H16.1315H21.4722L21.4539 25.9443C21.3704 25.6816 21.1334 25.3911 20.843 25.1921C20.4792 24.9454 20.0619 24.832 18.877 24.6569C18.5382 24.6071 18.1593 24.5474 18.0375 24.5255C17.6503 24.4559 17.43 24.3465 17.2481 24.1296C17.0728 23.9206 17.0328 23.7813 17.0328 23.3655C17.0328 23.1088 17.0111 22.6312 16.9326 21.0752C16.8242 18.9302 16.7641 17.6626 16.6906 15.9812C16.6623 15.3306 16.6256 14.5128 16.5972 13.9516C16.5571 13.1199 16.2851 7.26583 16.2884 7.26185C16.2884 7.25986 16.6623 7.3494 17.1162 7.45884C17.9908 7.66777 19.8333 8.10951 21.7543 8.57115C22.3918 8.72238 22.9159 8.85172 22.9192 8.8557C22.9242 8.86167 21.2686 14.7913 20.4508 17.6925L20.1921 18.6078L19.8233 18.6138C19.6197 18.6158 19.4528 18.6257 19.4528 18.6357C19.4528 18.6456 19.4861 18.7073 19.5279 18.771C19.7782 19.1689 20.2789 19.555 20.838 19.7798C21.5073 20.0484 22.2316 20.1698 23.1662 20.1698C24.7367 20.1698 25.8766 19.7778 26.4474 19.0396C26.5058 18.964 26.5776 18.8526 26.6076 18.7949C26.7044 18.5999 26.7461 18.6178 26.2104 18.6178H25.7364L25.5228 17.8557C25.4043 17.4378 24.9553 15.842 24.5231 14.3098C23.0928 9.2258 23.011 8.93728 22.9976 8.89947C22.9876 8.86565 22.991 8.86366 23.0294 8.8736C23.0744 8.88753 23.4065 8.96713 23.4182 8.96713C23.4216 8.96713 23.4249 8.99896 23.4249 9.03677C23.4249 9.11636 23.4616 9.23575 23.505 9.29147C23.5534 9.35713 23.6285 9.39096 23.7203 9.38897C24.0224 9.38499 24.1125 8.91141 23.8405 8.74825C23.7236 8.67661 23.6085 8.70049 23.505 8.82187L23.4433 8.8935L23.1545 8.79401C22.996 8.7383 22.6071 8.601 22.29 8.48957C21.9729 8.37814 21.5156 8.21696 21.2719 8.1314C21.0283 8.04584 20.5743 7.88665 20.2622 7.77721C18.7602 7.24792 18.1643 7.03899 17.6419 6.85394C17.3299 6.7445 16.8909 6.59128 16.6673 6.51169C16.2918 6.38036 16.2584 6.36444 16.2484 6.31867C16.2417 6.29281 16.2317 6.12964 16.225 5.96051L16.2117 5.65009L16.2968 5.64014C16.4119 5.62622 16.5772 5.52474 16.6773 5.40734C17.0311 4.98549 16.9009 4.26518 16.432 4.05028C16.3185 3.99854 16.1349 3.98461 16.0231 4.01844ZM9.13526 5.49887C9.14361 5.54065 9.32552 6.18735 9.53581 6.93751C9.74777 7.68767 10.2501 9.47254 10.654 10.9072C11.0579 12.3399 11.4484 13.7268 11.5219 13.9855L11.6571 14.459H9.1119C7.71331 14.459 6.5684 14.4531 6.5684 14.4431C6.5684 14.4312 8.05545 9.12631 8.83986 6.33658C8.98172 5.83515 9.10188 5.42524 9.10689 5.42524C9.11357 5.42524 9.12525 5.45907 9.13526 5.49887ZM23.5401 11.6136C24.4747 14.9366 25.3475 18.0387 25.426 18.3073C25.4727 18.4705 25.5111 18.6078 25.5111 18.6118C25.5111 18.6158 24.3662 18.6178 22.9659 18.6178C21.5657 18.6178 20.4208 18.6158 20.4208 18.6118C20.4208 18.6018 22.9292 9.65361 22.9509 9.58397C22.9559 9.56805 23.0077 9.72326 23.0661 9.93219C23.1245 10.1391 23.3381 10.8973 23.5401 11.6136Z"/>
</mask>
<path d="M16.0231 4.01844C15.8478 4.07416 15.6726 4.22936 15.5858 4.40447C15.3705 4.84223 15.5524 5.44315 15.948 5.60035L16.0397 5.63815L16.0347 5.96449C16.0314 6.14357 16.0264 6.29281 16.0231 6.29679C16.0197 6.30077 15.6776 6.22316 15.2603 6.12168C14.8448 6.02219 13.3894 5.67198 12.0259 5.34565C10.6624 5.01932 9.36057 4.70692 9.13026 4.6512C8.90161 4.59549 8.70801 4.54972 8.70133 4.54972C8.69466 4.54972 8.68798 4.52783 8.68798 4.49998C8.68798 4.34875 8.54445 4.19155 8.40593 4.19155C8.31747 4.19155 8.21734 4.25125 8.16894 4.33283C8.13055 4.3985 8.10885 4.55171 8.12721 4.63727C8.14056 4.70294 8.214 4.80243 8.27575 4.84024C8.33917 4.88003 8.47102 4.88003 8.53444 4.84024C8.59118 4.80442 8.67129 4.69896 8.67129 4.65717C8.67129 4.64125 8.67964 4.62932 8.69132 4.62932C8.72136 4.62932 9.02845 4.73279 9.04347 4.7487C9.05015 4.75467 8.44431 6.94149 7.69829 9.60586L6.33976 14.4491L5.83573 14.4551C5.41682 14.459 5.33337 14.465 5.33337 14.4869C5.33337 14.5545 5.53031 14.8232 5.70055 14.9843C6.23294 15.4937 6.97563 15.8081 7.98702 15.9554C8.2624 15.9952 8.37422 15.9992 9.03012 15.9992C9.63428 16.0011 9.80952 15.9952 10.0148 15.9653C11.0362 15.8181 11.7272 15.5216 12.2045 15.0222C12.348 14.8709 12.5433 14.5585 12.5433 14.4789C12.5433 14.467 12.4315 14.459 12.2095 14.459C12.0259 14.459 11.8757 14.457 11.8757 14.4531C11.8757 14.4491 11.7522 14.0073 11.602 13.4721C11.3066 12.4234 9.94304 7.58022 9.4557 5.84709C9.29215 5.26606 9.1603 4.7885 9.1653 4.7885C9.17031 4.7885 9.40397 4.87008 9.68602 4.96957C10.1583 5.13473 10.5939 5.28795 11.7756 5.70382C12.0192 5.78938 12.605 5.99433 13.0773 6.16148C13.5497 6.32862 14.1355 6.53357 14.3791 6.61914C14.6228 6.7047 15.0801 6.86587 15.3972 6.9773C15.7143 7.08873 15.9747 7.18226 15.978 7.18624C15.9813 7.19022 15.9563 7.78318 15.9246 8.5035C15.8912 9.22381 15.8495 10.1312 15.8311 10.5192C15.8128 10.9072 15.7827 11.5619 15.7644 11.9718C15.746 12.3817 15.716 13.0363 15.6976 13.4243C15.6793 13.8123 15.6342 14.7933 15.5975 15.6032C15.5608 16.413 15.5157 17.398 15.4973 17.792C15.479 18.186 15.4456 18.9202 15.4222 19.4236C15.3989 19.9271 15.3655 20.6693 15.3471 21.0752C15.3288 21.4791 15.3021 22.0403 15.2887 22.3188C15.2754 22.5974 15.257 23.0093 15.247 23.2341C15.237 23.459 15.217 23.6958 15.2036 23.7615C15.1418 24.0599 14.9149 24.3027 14.5777 24.434C14.4192 24.4977 14.2807 24.5236 13.4445 24.6469C12.0676 24.8519 11.7005 24.9613 11.2949 25.2876C11.0813 25.4608 10.8893 25.7155 10.8159 25.9264L10.7909 26H16.1315H21.4722L21.4539 25.9443C21.3704 25.6816 21.1334 25.3911 20.843 25.1921C20.4792 24.9454 20.0619 24.832 18.877 24.6569C18.5382 24.6071 18.1593 24.5474 18.0375 24.5255C17.6503 24.4559 17.43 24.3465 17.2481 24.1296C17.0728 23.9206 17.0328 23.7813 17.0328 23.3655C17.0328 23.1088 17.0111 22.6312 16.9326 21.0752C16.8242 18.9302 16.7641 17.6626 16.6906 15.9812C16.6623 15.3306 16.6256 14.5128 16.5972 13.9516C16.5571 13.1199 16.2851 7.26583 16.2884 7.26185C16.2884 7.25986 16.6623 7.3494 17.1162 7.45884C17.9908 7.66777 19.8333 8.10951 21.7543 8.57115C22.3918 8.72238 22.9159 8.85172 22.9192 8.8557C22.9242 8.86167 21.2686 14.7913 20.4508 17.6925L20.1921 18.6078L19.8233 18.6138C19.6197 18.6158 19.4528 18.6257 19.4528 18.6357C19.4528 18.6456 19.4861 18.7073 19.5279 18.771C19.7782 19.1689 20.2789 19.555 20.838 19.7798C21.5073 20.0484 22.2316 20.1698 23.1662 20.1698C24.7367 20.1698 25.8766 19.7778 26.4474 19.0396C26.5058 18.964 26.5776 18.8526 26.6076 18.7949C26.7044 18.5999 26.7461 18.6178 26.2104 18.6178H25.7364L25.5228 17.8557C25.4043 17.4378 24.9553 15.842 24.5231 14.3098C23.0928 9.2258 23.011 8.93728 22.9976 8.89947C22.9876 8.86565 22.991 8.86366 23.0294 8.8736C23.0744 8.88753 23.4065 8.96713 23.4182 8.96713C23.4216 8.96713 23.4249 8.99896 23.4249 9.03677C23.4249 9.11636 23.4616 9.23575 23.505 9.29147C23.5534 9.35713 23.6285 9.39096 23.7203 9.38897C24.0224 9.38499 24.1125 8.91141 23.8405 8.74825C23.7236 8.67661 23.6085 8.70049 23.505 8.82187L23.4433 8.8935L23.1545 8.79401C22.996 8.7383 22.6071 8.601 22.29 8.48957C21.9729 8.37814 21.5156 8.21696 21.2719 8.1314C21.0283 8.04584 20.5743 7.88665 20.2622 7.77721C18.7602 7.24792 18.1643 7.03899 17.6419 6.85394C17.3299 6.7445 16.8909 6.59128 16.6673 6.51169C16.2918 6.38036 16.2584 6.36444 16.2484 6.31867C16.2417 6.29281 16.2317 6.12964 16.225 5.96051L16.2117 5.65009L16.2968 5.64014C16.4119 5.62622 16.5772 5.52474 16.6773 5.40734C17.0311 4.98549 16.9009 4.26518 16.432 4.05028C16.3185 3.99854 16.1349 3.98461 16.0231 4.01844ZM9.13526 5.49887C9.14361 5.54065 9.32552 6.18735 9.53581 6.93751C9.74777 7.68767 10.2501 9.47254 10.654 10.9072C11.0579 12.3399 11.4484 13.7268 11.5219 13.9855L11.6571 14.459H9.1119C7.71331 14.459 6.5684 14.4531 6.5684 14.4431C6.5684 14.4312 8.05545 9.12631 8.83986 6.33658C8.98172 5.83515 9.10188 5.42524 9.10689 5.42524C9.11357 5.42524 9.12525 5.45907 9.13526 5.49887ZM23.5401 11.6136C24.4747 14.9366 25.3475 18.0387 25.426 18.3073C25.4727 18.4705 25.5111 18.6078 25.5111 18.6118C25.5111 18.6158 24.3662 18.6178 22.9659 18.6178C21.5657 18.6178 20.4208 18.6158 20.4208 18.6118C20.4208 18.6018 22.9292 9.65361 22.9509 9.58397C22.9559 9.56805 23.0077 9.72326 23.0661 9.93219C23.1245 10.1391 23.3381 10.8973 23.5401 11.6136Z" fill="#F5F5F7"/>
<path d="M16.0231 4.01844C15.8478 4.07416 15.6726 4.22936 15.5858 4.40447C15.3705 4.84223 15.5524 5.44315 15.948 5.60035L16.0397 5.63815L16.0347 5.96449C16.0314 6.14357 16.0264 6.29281 16.0231 6.29679C16.0197 6.30077 15.6776 6.22316 15.2603 6.12168C14.8448 6.02219 13.3894 5.67198 12.0259 5.34565C10.6624 5.01932 9.36057 4.70692 9.13026 4.6512C8.90161 4.59549 8.70801 4.54972 8.70133 4.54972C8.69466 4.54972 8.68798 4.52783 8.68798 4.49998C8.68798 4.34875 8.54445 4.19155 8.40593 4.19155C8.31747 4.19155 8.21734 4.25125 8.16894 4.33283C8.13055 4.3985 8.10885 4.55171 8.12721 4.63727C8.14056 4.70294 8.214 4.80243 8.27575 4.84024C8.33917 4.88003 8.47102 4.88003 8.53444 4.84024C8.59118 4.80442 8.67129 4.69896 8.67129 4.65717C8.67129 4.64125 8.67964 4.62932 8.69132 4.62932C8.72136 4.62932 9.02845 4.73279 9.04347 4.7487C9.05015 4.75467 8.44431 6.94149 7.69829 9.60586L6.33976 14.4491L5.83573 14.4551C5.41682 14.459 5.33337 14.465 5.33337 14.4869C5.33337 14.5545 5.53031 14.8232 5.70055 14.9843C6.23294 15.4937 6.97563 15.8081 7.98702 15.9554C8.2624 15.9952 8.37422 15.9992 9.03012 15.9992C9.63428 16.0011 9.80952 15.9952 10.0148 15.9653C11.0362 15.8181 11.7272 15.5216 12.2045 15.0222C12.348 14.8709 12.5433 14.5585 12.5433 14.4789C12.5433 14.467 12.4315 14.459 12.2095 14.459C12.0259 14.459 11.8757 14.457 11.8757 14.4531C11.8757 14.4491 11.7522 14.0073 11.602 13.4721C11.3066 12.4234 9.94304 7.58022 9.4557 5.84709C9.29215 5.26606 9.1603 4.7885 9.1653 4.7885C9.17031 4.7885 9.40397 4.87008 9.68602 4.96957C10.1583 5.13473 10.5939 5.28795 11.7756 5.70382C12.0192 5.78938 12.605 5.99433 13.0773 6.16148C13.5497 6.32862 14.1355 6.53357 14.3791 6.61914C14.6228 6.7047 15.0801 6.86587 15.3972 6.9773C15.7143 7.08873 15.9747 7.18226 15.978 7.18624C15.9813 7.19022 15.9563 7.78318 15.9246 8.5035C15.8912 9.22381 15.8495 10.1312 15.8311 10.5192C15.8128 10.9072 15.7827 11.5619 15.7644 11.9718C15.746 12.3817 15.716 13.0363 15.6976 13.4243C15.6793 13.8123 15.6342 14.7933 15.5975 15.6032C15.5608 16.413 15.5157 17.398 15.4973 17.792C15.479 18.186 15.4456 18.9202 15.4222 19.4236C15.3989 19.9271 15.3655 20.6693 15.3471 21.0752C15.3288 21.4791 15.3021 22.0403 15.2887 22.3188C15.2754 22.5974 15.257 23.0093 15.247 23.2341C15.237 23.459 15.217 23.6958 15.2036 23.7615C15.1418 24.0599 14.9149 24.3027 14.5777 24.434C14.4192 24.4977 14.2807 24.5236 13.4445 24.6469C12.0676 24.8519 11.7005 24.9613 11.2949 25.2876C11.0813 25.4608 10.8893 25.7155 10.8159 25.9264L10.7909 26H16.1315H21.4722L21.4539 25.9443C21.3704 25.6816 21.1334 25.3911 20.843 25.1921C20.4792 24.9454 20.0619 24.832 18.877 24.6569C18.5382 24.6071 18.1593 24.5474 18.0375 24.5255C17.6503 24.4559 17.43 24.3465 17.2481 24.1296C17.0728 23.9206 17.0328 23.7813 17.0328 23.3655C17.0328 23.1088 17.0111 22.6312 16.9326 21.0752C16.8242 18.9302 16.7641 17.6626 16.6906 15.9812C16.6623 15.3306 16.6256 14.5128 16.5972 13.9516C16.5571 13.1199 16.2851 7.26583 16.2884 7.26185C16.2884 7.25986 16.6623 7.3494 17.1162 7.45884C17.9908 7.66777 19.8333 8.10951 21.7543 8.57115C22.3918 8.72238 22.9159 8.85172 22.9192 8.8557C22.9242 8.86167 21.2686 14.7913 20.4508 17.6925L20.1921 18.6078L19.8233 18.6138C19.6197 18.6158 19.4528 18.6257 19.4528 18.6357C19.4528 18.6456 19.4861 18.7073 19.5279 18.771C19.7782 19.1689 20.2789 19.555 20.838 19.7798C21.5073 20.0484 22.2316 20.1698 23.1662 20.1698C24.7367 20.1698 25.8766 19.7778 26.4474 19.0396C26.5058 18.964 26.5776 18.8526 26.6076 18.7949C26.7044 18.5999 26.7461 18.6178 26.2104 18.6178H25.7364L25.5228 17.8557C25.4043 17.4378 24.9553 15.842 24.5231 14.3098C23.0928 9.2258 23.011 8.93728 22.9976 8.89947C22.9876 8.86565 22.991 8.86366 23.0294 8.8736C23.0744 8.88753 23.4065 8.96713 23.4182 8.96713C23.4216 8.96713 23.4249 8.99896 23.4249 9.03677C23.4249 9.11636 23.4616 9.23575 23.505 9.29147C23.5534 9.35713 23.6285 9.39096 23.7203 9.38897C24.0224 9.38499 24.1125 8.91141 23.8405 8.74825C23.7236 8.67661 23.6085 8.70049 23.505 8.82187L23.4433 8.8935L23.1545 8.79401C22.996 8.7383 22.6071 8.601 22.29 8.48957C21.9729 8.37814 21.5156 8.21696 21.2719 8.1314C21.0283 8.04584 20.5743 7.88665 20.2622 7.77721C18.7602 7.24792 18.1643 7.03899 17.6419 6.85394C17.3299 6.7445 16.8909 6.59128 16.6673 6.51169C16.2918 6.38036 16.2584 6.36444 16.2484 6.31867C16.2417 6.29281 16.2317 6.12964 16.225 5.96051L16.2117 5.65009L16.2968 5.64014C16.4119 5.62622 16.5772 5.52474 16.6773 5.40734C17.0311 4.98549 16.9009 4.26518 16.432 4.05028C16.3185 3.99854 16.1349 3.98461 16.0231 4.01844ZM9.13526 5.49887C9.14361 5.54065 9.32552 6.18735 9.53581 6.93751C9.74777 7.68767 10.2501 9.47254 10.654 10.9072C11.0579 12.3399 11.4484 13.7268 11.5219 13.9855L11.6571 14.459H9.1119C7.71331 14.459 6.5684 14.4531 6.5684 14.4431C6.5684 14.4312 8.05545 9.12631 8.83986 6.33658C8.98172 5.83515 9.10188 5.42524 9.10689 5.42524C9.11357 5.42524 9.12525 5.45907 9.13526 5.49887ZM23.5401 11.6136C24.4747 14.9366 25.3475 18.0387 25.426 18.3073C25.4727 18.4705 25.5111 18.6078 25.5111 18.6118C25.5111 18.6158 24.3662 18.6178 22.9659 18.6178C21.5657 18.6178 20.4208 18.6158 20.4208 18.6118C20.4208 18.6018 22.9292 9.65361 22.9509 9.58397C22.9559 9.56805 23.0077 9.72326 23.0661 9.93219C23.1245 10.1391 23.3381 10.8973 23.5401 11.6136Z" stroke="#F5F5F7" stroke-width="2"/>
</svg>
