<svg width="30" height="30" viewBox="0 0 30 30" fill="none" xmlns="http://www.w3.org/2000/svg">
<rect width="30" height="30" rx="7" fill="#7B7B7B"/>
<mask id="path-2-outside-1_55_642" maskUnits="userSpaceOnUse" x="4" y="3" width="22" height="24" fill="black">
<rect fill="white" x="4" y="3" width="22" height="24"/>
<path d="M15.0216 4.01844C14.8573 4.07416 14.693 4.22936 14.6116 4.40446C14.4098 4.84223 14.5803 5.44315 14.9512 5.60035L15.0372 5.63815L15.0325 5.96449C15.0294 6.14357 15.0247 6.29281 15.0216 6.29679C15.0184 6.30077 14.6977 6.22316 14.3065 6.12168C13.9169 6.02219 12.5526 5.67198 11.2742 5.34565C9.99593 5.01932 8.7755 4.70692 8.55958 4.6512C8.34522 4.59549 8.16372 4.54972 8.15746 4.54972C8.1512 4.54972 8.14495 4.52783 8.14495 4.49998C8.14495 4.34875 8.01039 4.19156 7.88052 4.19156C7.79759 4.19156 7.70371 4.25125 7.65834 4.33283C7.62235 4.3985 7.60201 4.55171 7.61922 4.63727C7.63174 4.70294 7.70058 4.80243 7.75848 4.84024C7.81793 4.88003 7.94154 4.88003 8.001 4.84024C8.0542 4.80442 8.1293 4.69896 8.1293 4.65717C8.1293 4.64125 8.13712 4.62931 8.14807 4.62931C8.17624 4.62931 8.46413 4.73279 8.47822 4.7487C8.48447 4.75467 7.91651 6.94149 7.21711 9.60586L5.94348 14.4491L5.47096 14.4551C5.07823 14.459 5 14.465 5 14.4869C5 14.5545 5.18463 14.8232 5.34422 14.9843C5.84335 15.4937 6.53962 15.8081 7.48779 15.9554C7.74596 15.9952 7.85079 15.9992 8.4657 15.9992C9.0321 16.0011 9.19639 15.9952 9.38884 15.9653C10.3464 15.8181 10.9942 15.5216 11.4417 15.0222C11.5762 14.8709 11.7593 14.5585 11.7593 14.4789C11.7593 14.467 11.6545 14.459 11.4464 14.459C11.2742 14.459 11.1334 14.457 11.1334 14.4531C11.1334 14.4491 11.0176 14.0073 10.8768 13.4721C10.5999 12.4234 9.32156 7.58022 8.86468 5.84709C8.71135 5.26606 8.58774 4.7885 8.59244 4.7885C8.59713 4.7885 8.81618 4.87008 9.08061 4.96957C9.5234 5.13473 9.93178 5.28795 11.0395 5.70382C11.268 5.78938 11.8172 5.99433 12.26 6.16148C12.7028 6.32862 13.252 6.53358 13.4804 6.61914C13.7088 6.7047 14.1376 6.86588 14.4348 6.9773C14.7321 7.08874 14.9762 7.18226 14.9793 7.18624C14.9825 7.19022 14.959 7.78318 14.9293 8.5035C14.898 9.22381 14.8589 10.1312 14.8416 10.5192C14.8244 10.9072 14.7963 11.5619 14.7791 11.9718C14.7618 12.3817 14.7337 13.0363 14.7165 13.4243C14.6993 13.8123 14.657 14.7933 14.6226 15.6032C14.5882 16.413 14.5459 17.398 14.5287 17.792C14.5115 18.186 14.4802 18.9202 14.4583 19.4236C14.4364 19.9271 14.4051 20.6693 14.3879 21.0752C14.3707 21.4791 14.3457 22.0403 14.3331 22.3188C14.3206 22.5974 14.3034 23.0093 14.294 23.2341C14.2846 23.459 14.2659 23.6958 14.2533 23.7615C14.1954 24.0599 13.9827 24.3027 13.6666 24.434C13.518 24.4977 13.3881 24.5236 12.6042 24.6469C11.3134 24.8519 10.9691 24.9613 10.5889 25.2876C10.3887 25.4608 10.2087 25.7155 10.1399 25.9264L10.1164 26H15.1233H20.1302L20.1129 25.9443C20.0347 25.6816 19.8125 25.3911 19.5403 25.1921C19.1992 24.9454 18.808 24.832 17.6971 24.6569C17.3795 24.6071 17.0243 24.5474 16.9101 24.5255C16.5471 24.4559 16.3406 24.3465 16.17 24.1296C16.0057 23.9206 15.9682 23.7813 15.9682 23.3655C15.9682 23.1088 15.9479 22.6312 15.8743 21.0752C15.7726 18.9302 15.7163 17.6626 15.6474 15.9812C15.6208 15.3306 15.5864 14.5128 15.5598 13.9516C15.5223 13.1199 15.2672 7.26583 15.2704 7.26185C15.2704 7.25986 15.6208 7.3494 16.0464 7.45884C16.8663 7.66777 18.5937 8.10951 20.3946 8.57115C20.9923 8.72238 21.4836 8.85172 21.4867 8.8557C21.4914 8.86167 19.9393 14.7913 19.1726 17.6925L18.9301 18.6078L18.5843 18.6138C18.3934 18.6158 18.2369 18.6257 18.2369 18.6357C18.2369 18.6456 18.2682 18.7073 18.3073 18.771C18.542 19.1689 19.0114 19.555 19.5356 19.7798C20.163 20.0484 20.8421 20.1698 21.7183 20.1698C23.1906 20.1698 24.2593 19.7778 24.7944 19.0396C24.8491 18.964 24.9164 18.8526 24.9446 18.7949C25.0353 18.5999 25.0745 18.6178 24.5722 18.6178H24.1278L23.9276 17.8557C23.8165 17.4378 23.3956 15.842 22.9903 14.3098C21.6494 9.2258 21.5728 8.93728 21.5602 8.89947C21.5509 8.86565 21.554 8.86366 21.59 8.87361C21.6322 8.88753 21.9436 8.96713 21.9545 8.96713C21.9577 8.96713 21.9608 8.99896 21.9608 9.03677C21.9608 9.11636 21.9952 9.23575 22.0359 9.29147C22.0813 9.35713 22.1517 9.39096 22.2377 9.38897C22.5209 9.38499 22.6054 8.91141 22.3504 8.74825C22.2409 8.67661 22.1329 8.70049 22.0359 8.82187L21.978 8.8935L21.7073 8.79401C21.5587 8.7383 21.1941 8.601 20.8968 8.48957C20.5996 8.37814 20.1708 8.21696 19.9424 8.1314C19.714 8.04584 19.2884 7.88665 18.9958 7.77721C17.5876 7.24792 17.029 7.03899 16.5393 6.85394C16.2467 6.7445 15.8352 6.59128 15.6255 6.51169C15.2735 6.38036 15.2422 6.36444 15.2328 6.31867C15.2265 6.29281 15.2172 6.12964 15.2109 5.96051L15.1984 5.65009L15.2782 5.64014C15.3861 5.62621 15.541 5.52473 15.6349 5.40734C15.9666 4.98549 15.8446 4.26518 15.4049 4.05028C15.2985 3.99854 15.1264 3.98461 15.0216 4.01844ZM8.56427 5.49887C8.57209 5.54065 8.74264 6.18735 8.93979 6.93751C9.1385 7.68767 9.60946 9.47254 9.9881 10.9072C10.3667 12.3399 10.7329 13.7268 10.8017 13.9855L10.9285 14.459H8.54237C7.23119 14.459 6.15784 14.4531 6.15784 14.4431C6.15784 14.4312 7.55194 9.12631 8.28733 6.33658C8.42032 5.83515 8.53298 5.42524 8.53767 5.42524C8.54393 5.42524 8.55488 5.45907 8.56427 5.49887ZM22.0688 11.6136C22.945 14.9366 23.7633 18.0387 23.8368 18.3073C23.8806 18.4705 23.9166 18.6078 23.9166 18.6118C23.9166 18.6158 22.8433 18.6178 21.5305 18.6178C20.2178 18.6178 19.1444 18.6158 19.1444 18.6118C19.1444 18.6018 21.4961 9.65361 21.5164 9.58397C21.5211 9.56805 21.5696 9.72326 21.6244 9.93219C21.6792 10.1391 21.8794 10.8973 22.0688 11.6136Z"/>
</mask>
<path d="M15.0216 4.01844C14.8573 4.07416 14.693 4.22936 14.6116 4.40446C14.4098 4.84223 14.5803 5.44315 14.9512 5.60035L15.0372 5.63815L15.0325 5.96449C15.0294 6.14357 15.0247 6.29281 15.0216 6.29679C15.0184 6.30077 14.6977 6.22316 14.3065 6.12168C13.9169 6.02219 12.5526 5.67198 11.2742 5.34565C9.99593 5.01932 8.7755 4.70692 8.55958 4.6512C8.34522 4.59549 8.16372 4.54972 8.15746 4.54972C8.1512 4.54972 8.14495 4.52783 8.14495 4.49998C8.14495 4.34875 8.01039 4.19156 7.88052 4.19156C7.79759 4.19156 7.70371 4.25125 7.65834 4.33283C7.62235 4.3985 7.60201 4.55171 7.61922 4.63727C7.63174 4.70294 7.70058 4.80243 7.75848 4.84024C7.81793 4.88003 7.94154 4.88003 8.001 4.84024C8.0542 4.80442 8.1293 4.69896 8.1293 4.65717C8.1293 4.64125 8.13712 4.62931 8.14807 4.62931C8.17624 4.62931 8.46413 4.73279 8.47822 4.7487C8.48447 4.75467 7.91651 6.94149 7.21711 9.60586L5.94348 14.4491L5.47096 14.4551C5.07823 14.459 5 14.465 5 14.4869C5 14.5545 5.18463 14.8232 5.34422 14.9843C5.84335 15.4937 6.53962 15.8081 7.48779 15.9554C7.74596 15.9952 7.85079 15.9992 8.4657 15.9992C9.0321 16.0011 9.19639 15.9952 9.38884 15.9653C10.3464 15.8181 10.9942 15.5216 11.4417 15.0222C11.5762 14.8709 11.7593 14.5585 11.7593 14.4789C11.7593 14.467 11.6545 14.459 11.4464 14.459C11.2742 14.459 11.1334 14.457 11.1334 14.4531C11.1334 14.4491 11.0176 14.0073 10.8768 13.4721C10.5999 12.4234 9.32156 7.58022 8.86468 5.84709C8.71135 5.26606 8.58774 4.7885 8.59244 4.7885C8.59713 4.7885 8.81618 4.87008 9.08061 4.96957C9.5234 5.13473 9.93178 5.28795 11.0395 5.70382C11.268 5.78938 11.8172 5.99433 12.26 6.16148C12.7028 6.32862 13.252 6.53358 13.4804 6.61914C13.7088 6.7047 14.1376 6.86588 14.4348 6.9773C14.7321 7.08874 14.9762 7.18226 14.9793 7.18624C14.9825 7.19022 14.959 7.78318 14.9293 8.5035C14.898 9.22381 14.8589 10.1312 14.8416 10.5192C14.8244 10.9072 14.7963 11.5619 14.7791 11.9718C14.7618 12.3817 14.7337 13.0363 14.7165 13.4243C14.6993 13.8123 14.657 14.7933 14.6226 15.6032C14.5882 16.413 14.5459 17.398 14.5287 17.792C14.5115 18.186 14.4802 18.9202 14.4583 19.4236C14.4364 19.9271 14.4051 20.6693 14.3879 21.0752C14.3707 21.4791 14.3457 22.0403 14.3331 22.3188C14.3206 22.5974 14.3034 23.0093 14.294 23.2341C14.2846 23.459 14.2659 23.6958 14.2533 23.7615C14.1954 24.0599 13.9827 24.3027 13.6666 24.434C13.518 24.4977 13.3881 24.5236 12.6042 24.6469C11.3134 24.8519 10.9691 24.9613 10.5889 25.2876C10.3887 25.4608 10.2087 25.7155 10.1399 25.9264L10.1164 26H15.1233H20.1302L20.1129 25.9443C20.0347 25.6816 19.8125 25.3911 19.5403 25.1921C19.1992 24.9454 18.808 24.832 17.6971 24.6569C17.3795 24.6071 17.0243 24.5474 16.9101 24.5255C16.5471 24.4559 16.3406 24.3465 16.17 24.1296C16.0057 23.9206 15.9682 23.7813 15.9682 23.3655C15.9682 23.1088 15.9479 22.6312 15.8743 21.0752C15.7726 18.9302 15.7163 17.6626 15.6474 15.9812C15.6208 15.3306 15.5864 14.5128 15.5598 13.9516C15.5223 13.1199 15.2672 7.26583 15.2704 7.26185C15.2704 7.25986 15.6208 7.3494 16.0464 7.45884C16.8663 7.66777 18.5937 8.10951 20.3946 8.57115C20.9923 8.72238 21.4836 8.85172 21.4867 8.8557C21.4914 8.86167 19.9393 14.7913 19.1726 17.6925L18.9301 18.6078L18.5843 18.6138C18.3934 18.6158 18.2369 18.6257 18.2369 18.6357C18.2369 18.6456 18.2682 18.7073 18.3073 18.771C18.542 19.1689 19.0114 19.555 19.5356 19.7798C20.163 20.0484 20.8421 20.1698 21.7183 20.1698C23.1906 20.1698 24.2593 19.7778 24.7944 19.0396C24.8491 18.964 24.9164 18.8526 24.9446 18.7949C25.0353 18.5999 25.0745 18.6178 24.5722 18.6178H24.1278L23.9276 17.8557C23.8165 17.4378 23.3956 15.842 22.9903 14.3098C21.6494 9.2258 21.5728 8.93728 21.5602 8.89947C21.5509 8.86565 21.554 8.86366 21.59 8.87361C21.6322 8.88753 21.9436 8.96713 21.9545 8.96713C21.9577 8.96713 21.9608 8.99896 21.9608 9.03677C21.9608 9.11636 21.9952 9.23575 22.0359 9.29147C22.0813 9.35713 22.1517 9.39096 22.2377 9.38897C22.5209 9.38499 22.6054 8.91141 22.3504 8.74825C22.2409 8.67661 22.1329 8.70049 22.0359 8.82187L21.978 8.8935L21.7073 8.79401C21.5587 8.7383 21.1941 8.601 20.8968 8.48957C20.5996 8.37814 20.1708 8.21696 19.9424 8.1314C19.714 8.04584 19.2884 7.88665 18.9958 7.77721C17.5876 7.24792 17.029 7.03899 16.5393 6.85394C16.2467 6.7445 15.8352 6.59128 15.6255 6.51169C15.2735 6.38036 15.2422 6.36444 15.2328 6.31867C15.2265 6.29281 15.2172 6.12964 15.2109 5.96051L15.1984 5.65009L15.2782 5.64014C15.3861 5.62621 15.541 5.52473 15.6349 5.40734C15.9666 4.98549 15.8446 4.26518 15.4049 4.05028C15.2985 3.99854 15.1264 3.98461 15.0216 4.01844ZM8.56427 5.49887C8.57209 5.54065 8.74264 6.18735 8.93979 6.93751C9.1385 7.68767 9.60946 9.47254 9.9881 10.9072C10.3667 12.3399 10.7329 13.7268 10.8017 13.9855L10.9285 14.459H8.54237C7.23119 14.459 6.15784 14.4531 6.15784 14.4431C6.15784 14.4312 7.55194 9.12631 8.28733 6.33658C8.42032 5.83515 8.53298 5.42524 8.53767 5.42524C8.54393 5.42524 8.55488 5.45907 8.56427 5.49887ZM22.0688 11.6136C22.945 14.9366 23.7633 18.0387 23.8368 18.3073C23.8806 18.4705 23.9166 18.6078 23.9166 18.6118C23.9166 18.6158 22.8433 18.6178 21.5305 18.6178C20.2178 18.6178 19.1444 18.6158 19.1444 18.6118C19.1444 18.6018 21.4961 9.65361 21.5164 9.58397C21.5211 9.56805 21.5696 9.72326 21.6244 9.93219C21.6792 10.1391 21.8794 10.8973 22.0688 11.6136Z" fill="#F5F5F7"/>
<path d="M15.0216 4.01844C14.8573 4.07416 14.693 4.22936 14.6116 4.40446C14.4098 4.84223 14.5803 5.44315 14.9512 5.60035L15.0372 5.63815L15.0325 5.96449C15.0294 6.14357 15.0247 6.29281 15.0216 6.29679C15.0184 6.30077 14.6977 6.22316 14.3065 6.12168C13.9169 6.02219 12.5526 5.67198 11.2742 5.34565C9.99593 5.01932 8.7755 4.70692 8.55958 4.6512C8.34522 4.59549 8.16372 4.54972 8.15746 4.54972C8.1512 4.54972 8.14495 4.52783 8.14495 4.49998C8.14495 4.34875 8.01039 4.19156 7.88052 4.19156C7.79759 4.19156 7.70371 4.25125 7.65834 4.33283C7.62235 4.3985 7.60201 4.55171 7.61922 4.63727C7.63174 4.70294 7.70058 4.80243 7.75848 4.84024C7.81793 4.88003 7.94154 4.88003 8.001 4.84024C8.0542 4.80442 8.1293 4.69896 8.1293 4.65717C8.1293 4.64125 8.13712 4.62931 8.14807 4.62931C8.17624 4.62931 8.46413 4.73279 8.47822 4.7487C8.48447 4.75467 7.91651 6.94149 7.21711 9.60586L5.94348 14.4491L5.47096 14.4551C5.07823 14.459 5 14.465 5 14.4869C5 14.5545 5.18463 14.8232 5.34422 14.9843C5.84335 15.4937 6.53962 15.8081 7.48779 15.9554C7.74596 15.9952 7.85079 15.9992 8.4657 15.9992C9.0321 16.0011 9.19639 15.9952 9.38884 15.9653C10.3464 15.8181 10.9942 15.5216 11.4417 15.0222C11.5762 14.8709 11.7593 14.5585 11.7593 14.4789C11.7593 14.467 11.6545 14.459 11.4464 14.459C11.2742 14.459 11.1334 14.457 11.1334 14.4531C11.1334 14.4491 11.0176 14.0073 10.8768 13.4721C10.5999 12.4234 9.32156 7.58022 8.86468 5.84709C8.71135 5.26606 8.58774 4.7885 8.59244 4.7885C8.59713 4.7885 8.81618 4.87008 9.08061 4.96957C9.5234 5.13473 9.93178 5.28795 11.0395 5.70382C11.268 5.78938 11.8172 5.99433 12.26 6.16148C12.7028 6.32862 13.252 6.53358 13.4804 6.61914C13.7088 6.7047 14.1376 6.86588 14.4348 6.9773C14.7321 7.08874 14.9762 7.18226 14.9793 7.18624C14.9825 7.19022 14.959 7.78318 14.9293 8.5035C14.898 9.22381 14.8589 10.1312 14.8416 10.5192C14.8244 10.9072 14.7963 11.5619 14.7791 11.9718C14.7618 12.3817 14.7337 13.0363 14.7165 13.4243C14.6993 13.8123 14.657 14.7933 14.6226 15.6032C14.5882 16.413 14.5459 17.398 14.5287 17.792C14.5115 18.186 14.4802 18.9202 14.4583 19.4236C14.4364 19.9271 14.4051 20.6693 14.3879 21.0752C14.3707 21.4791 14.3457 22.0403 14.3331 22.3188C14.3206 22.5974 14.3034 23.0093 14.294 23.2341C14.2846 23.459 14.2659 23.6958 14.2533 23.7615C14.1954 24.0599 13.9827 24.3027 13.6666 24.434C13.518 24.4977 13.3881 24.5236 12.6042 24.6469C11.3134 24.8519 10.9691 24.9613 10.5889 25.2876C10.3887 25.4608 10.2087 25.7155 10.1399 25.9264L10.1164 26H15.1233H20.1302L20.1129 25.9443C20.0347 25.6816 19.8125 25.3911 19.5403 25.1921C19.1992 24.9454 18.808 24.832 17.6971 24.6569C17.3795 24.6071 17.0243 24.5474 16.9101 24.5255C16.5471 24.4559 16.3406 24.3465 16.17 24.1296C16.0057 23.9206 15.9682 23.7813 15.9682 23.3655C15.9682 23.1088 15.9479 22.6312 15.8743 21.0752C15.7726 18.9302 15.7163 17.6626 15.6474 15.9812C15.6208 15.3306 15.5864 14.5128 15.5598 13.9516C15.5223 13.1199 15.2672 7.26583 15.2704 7.26185C15.2704 7.25986 15.6208 7.3494 16.0464 7.45884C16.8663 7.66777 18.5937 8.10951 20.3946 8.57115C20.9923 8.72238 21.4836 8.85172 21.4867 8.8557C21.4914 8.86167 19.9393 14.7913 19.1726 17.6925L18.9301 18.6078L18.5843 18.6138C18.3934 18.6158 18.2369 18.6257 18.2369 18.6357C18.2369 18.6456 18.2682 18.7073 18.3073 18.771C18.542 19.1689 19.0114 19.555 19.5356 19.7798C20.163 20.0484 20.8421 20.1698 21.7183 20.1698C23.1906 20.1698 24.2593 19.7778 24.7944 19.0396C24.8491 18.964 24.9164 18.8526 24.9446 18.7949C25.0353 18.5999 25.0745 18.6178 24.5722 18.6178H24.1278L23.9276 17.8557C23.8165 17.4378 23.3956 15.842 22.9903 14.3098C21.6494 9.2258 21.5728 8.93728 21.5602 8.89947C21.5509 8.86565 21.554 8.86366 21.59 8.87361C21.6322 8.88753 21.9436 8.96713 21.9545 8.96713C21.9577 8.96713 21.9608 8.99896 21.9608 9.03677C21.9608 9.11636 21.9952 9.23575 22.0359 9.29147C22.0813 9.35713 22.1517 9.39096 22.2377 9.38897C22.5209 9.38499 22.6054 8.91141 22.3504 8.74825C22.2409 8.67661 22.1329 8.70049 22.0359 8.82187L21.978 8.8935L21.7073 8.79401C21.5587 8.7383 21.1941 8.601 20.8968 8.48957C20.5996 8.37814 20.1708 8.21696 19.9424 8.1314C19.714 8.04584 19.2884 7.88665 18.9958 7.77721C17.5876 7.24792 17.029 7.03899 16.5393 6.85394C16.2467 6.7445 15.8352 6.59128 15.6255 6.51169C15.2735 6.38036 15.2422 6.36444 15.2328 6.31867C15.2265 6.29281 15.2172 6.12964 15.2109 5.96051L15.1984 5.65009L15.2782 5.64014C15.3861 5.62621 15.541 5.52473 15.6349 5.40734C15.9666 4.98549 15.8446 4.26518 15.4049 4.05028C15.2985 3.99854 15.1264 3.98461 15.0216 4.01844ZM8.56427 5.49887C8.57209 5.54065 8.74264 6.18735 8.93979 6.93751C9.1385 7.68767 9.60946 9.47254 9.9881 10.9072C10.3667 12.3399 10.7329 13.7268 10.8017 13.9855L10.9285 14.459H8.54237C7.23119 14.459 6.15784 14.4531 6.15784 14.4431C6.15784 14.4312 7.55194 9.12631 8.28733 6.33658C8.42032 5.83515 8.53298 5.42524 8.53767 5.42524C8.54393 5.42524 8.55488 5.45907 8.56427 5.49887ZM22.0688 11.6136C22.945 14.9366 23.7633 18.0387 23.8368 18.3073C23.8806 18.4705 23.9166 18.6078 23.9166 18.6118C23.9166 18.6158 22.8433 18.6178 21.5305 18.6178C20.2178 18.6178 19.1444 18.6158 19.1444 18.6118C19.1444 18.6018 21.4961 9.65361 21.5164 9.58397C21.5211 9.56805 21.5696 9.72326 21.6244 9.93219C21.6792 10.1391 21.8794 10.8973 22.0688 11.6136Z" stroke="#F5F5F7" stroke-width="2" mask="url(#path-2-outside-1_55_642)"/>
</svg>
