<svg width="26" height="39" viewBox="0 0 26 39" fill="none" xmlns="http://www.w3.org/2000/svg">
<path fill-rule="evenodd" clip-rule="evenodd" d="M1.96159 20.3183L3.05073 34.1899C3.21754 36.3432 4.4048 37.96 5.81284 37.96H20.4133C21.8213 37.96 23.0037 36.3432 23.1754 34.1899L24.2645 20.3183C24.294 19.9708 24.1174 19.661 23.8868 19.661H2.33935C2.10877 19.6686 1.93215 19.9708 1.96159 20.3183ZM6.7499 34.5677C6.7499 34.9757 6.53404 35.3081 6.26911 35.3081H5.19959C4.93466 35.3081 4.71879 34.9757 4.71879 34.5677V23.0609C4.71879 22.6529 4.93466 22.3205 5.19959 22.3205H6.27401C6.53894 22.3205 6.75481 22.6529 6.75481 23.0609V34.5677H6.7499ZM10.4393 34.5677C10.4393 34.9757 10.2234 35.3081 9.95847 35.3081H8.88404C8.61911 35.3081 8.40325 34.9757 8.40325 34.5677V23.0609C8.40325 22.6529 8.61911 22.3205 8.88404 22.3205H9.95847C10.2234 22.3205 10.4393 22.6529 10.4393 23.0609V34.5677ZM14.1286 34.5677C14.1286 34.9757 13.9128 35.3081 13.6478 35.3081H12.5734C12.3085 35.3081 12.0926 34.9757 12.0926 34.5677V23.0609C12.0926 22.6529 12.3085 22.3205 12.5734 22.3205H13.6478C13.9128 22.3205 14.1286 22.6529 14.1286 23.0609V34.5677ZM17.8131 34.5677C17.8131 34.9757 17.5972 35.3081 17.3323 35.3081H16.2579C15.9929 35.3081 15.7771 34.9757 15.7771 34.5677V23.0609C15.7771 22.6529 15.9929 22.3205 16.2579 22.3205H17.3372C17.6021 22.3205 17.818 22.6529 17.818 23.0609V34.5677H17.8131ZM21.5024 34.5677C21.5024 34.9757 21.2866 35.3081 21.0216 35.3081H19.9472C19.6823 35.3081 19.4664 34.9757 19.4664 34.5677V23.0609C19.4664 22.6529 19.6823 22.3205 19.9472 22.3205H21.0216C21.2866 22.3205 21.5024 22.6529 21.5024 23.0609V34.5677Z" stroke="#737373" stroke-miterlimit="10" stroke-linecap="round" stroke-linejoin="round"/>
<path d="M3.90929 14.3118H1.48079C1.21587 14.3118 1 14.6442 1 15.0522V16.8655C1 17.2735 1.21587 17.6059 1.48079 17.6059H24.7601C25.025 17.6059 25.2409 17.2735 25.2409 16.8655V15.0522C25.2409 14.6442 25.025 14.3118 24.7601 14.3118H22.3463" stroke="#737373" stroke-miterlimit="10" stroke-linecap="round" stroke-linejoin="round"/>
<path d="M20.8401 14.3118H5.42523" stroke="#737373" stroke-miterlimit="10" stroke-linecap="round" stroke-linejoin="round"/>
<path fill-rule="evenodd" clip-rule="evenodd" d="M12.4998 3.16768C12.8481 2.58592 12.7844 1.6415 12.3281 1.19574C12.0534 0.923745 11.6854 0.938855 11.4156 1.2184C11.1212 1.52817 11.0133 2.03438 11.0623 2.50281L3.47757 15.1202C3.33039 15.362 3.3402 15.7398 3.49719 15.9664L3.67381 16.2157C3.8308 16.4424 4.07611 16.4273 4.22329 16.1855L11.8081 3.56811C12.0583 3.60589 12.3134 3.46989 12.4998 3.16768Z" stroke="#737373" stroke-miterlimit="10" stroke-linecap="round" stroke-linejoin="round"/>
<path fill-rule="evenodd" clip-rule="evenodd" d="M13.7362 3.16768C13.3878 2.58592 13.4516 1.6415 13.9079 1.19574C14.1826 0.923745 14.5506 0.938855 14.8204 1.2184C15.1148 1.52817 15.2227 2.03438 15.1737 2.50281L22.7584 15.1202C22.9056 15.362 22.8958 15.7398 22.7388 15.9664L22.5622 16.2157C22.4052 16.4424 22.1599 16.4273 22.0127 16.1855L14.4279 3.56811C14.1777 3.60589 13.9226 3.46989 13.7362 3.16768Z" stroke="#737373" stroke-miterlimit="10" stroke-linecap="round" stroke-linejoin="round"/>
</svg>
