<svg width="25" height="24" viewBox="0 0 25 24" fill="none" xmlns="http://www.w3.org/2000/svg">
<g clip-path="url(#clip0_7_89)">
<path d="M18.4941 0C17.1987 0 16.0111 0.464982 14.9642 1.38206C13.9606 2.26127 13.2925 3.3811 12.8991 4.1954C12.5057 3.38105 11.8375 2.26127 10.8339 1.38206C9.78703 0.464982 8.59938 0 7.304 0C3.689 0 0.962891 3.34936 0.962891 7.79096C0.962891 12.5894 4.36391 15.8724 9.51261 20.8425C10.3869 21.6865 11.378 22.6432 12.408 23.6635C12.5438 23.7982 12.7181 23.8723 12.8991 23.8723C13.08 23.8723 13.2544 23.7982 13.3901 23.6635C14.4203 22.6431 15.4112 21.6865 16.2861 20.8419C21.4342 15.8724 24.8352 12.5894 24.8352 7.79096C24.8352 3.34936 22.1091 0 18.4941 0Z" fill="#737373"/>
</g>
<defs>
<clipPath id="clip0_7_89">
<rect width="24" height="24" fill="white" transform="translate(0.962891)"/>
</clipPath>
</defs>
</svg>
