<svg width="92" height="46" viewBox="0 0 92 46" fill="none" xmlns="http://www.w3.org/2000/svg">
<rect width="91.7144" height="46" rx="23" fill="#D9D9D9"/>
<g clip-path="url(#clip0_26_9)">
<path d="M57.2364 17.8861C57.0654 18.0166 54.0462 19.6899 54.0462 23.4106C54.0462 27.7142 57.888 29.2367 58.003 29.2744C57.9853 29.3672 57.3926 31.3595 55.9774 33.3895C54.7155 35.1759 53.3975 36.9594 51.3926 36.9594C49.3877 36.9594 48.8717 35.8139 46.5573 35.8139C44.3017 35.8139 43.4998 36.9971 41.6658 36.9971C39.8319 36.9971 38.5523 35.3441 37.0811 33.3141C35.3769 30.9303 34 27.227 34 23.7122C34 18.0746 37.7268 15.0847 41.3946 15.0847C43.3435 15.0847 44.9681 16.3433 46.1916 16.3433C47.3563 16.3433 49.1725 15.0093 51.3897 15.0093C52.23 15.0093 55.2491 15.0847 57.2364 17.8861ZM50.3371 12.6226C51.2541 11.5525 51.9027 10.0677 51.9027 8.5829C51.9027 8.377 51.885 8.1682 51.8467 8C50.3548 8.0551 48.5799 8.9773 47.5096 10.1982C46.6693 11.1378 45.885 12.6226 45.885 14.1277C45.885 14.3539 45.9233 14.5801 45.941 14.6526C46.0354 14.67 46.1887 14.6903 46.342 14.6903C47.6806 14.6903 49.3641 13.8087 50.3371 12.6226Z" fill="black"/>
</g>
<defs>
<clipPath id="clip0_26_9">
<rect width="24" height="29" fill="white" transform="translate(34 8)"/>
</clipPath>
</defs>
</svg>
