<svg width="93" height="46" viewBox="0 0 93 46" fill="none" xmlns="http://www.w3.org/2000/svg">
<rect x="0.321411" width="91.7144" height="46" rx="23" fill="#D9D9D9"/>
<path d="M73.453 18.5197C73.453 17.833 74.0004 17.2702 74.6706 17.2702C74.9946 17.2702 75.2962 17.4053 75.5308 17.6304C75.7654 17.8668 75.8883 18.182 75.8883 18.5084C75.8883 18.8349 75.7654 19.1501 75.5308 19.3865C75.2962 19.6229 74.9946 19.758 74.6706 19.758C74.0004 19.758 73.453 19.2064 73.453 18.5197ZM73.3525 18.5197C73.3525 19.2627 73.9445 19.8705 74.6818 19.8705C75.0393 19.8705 75.3632 19.7355 75.609 19.4765C75.8548 19.2176 76 18.8799 76 18.5197C76 18.1595 75.8659 17.8218 75.609 17.5629C75.3521 17.3039 75.0281 17.1689 74.6818 17.1689C73.9445 17.1689 73.3525 17.7767 73.3525 18.5197ZM74.1791 19.3189H74.369V18.6886H74.7935C74.8605 18.6886 74.9164 18.6886 74.9611 18.7111C75.0169 18.7448 75.0505 18.8124 75.0616 18.9024L75.084 19.1501C75.084 19.2064 75.084 19.2402 75.084 19.2627C75.0951 19.2852 75.0951 19.2964 75.1063 19.3077H75.3409V19.2739C75.3074 19.2627 75.2962 19.2289 75.2851 19.1839C75.2739 19.1614 75.2739 19.1163 75.2739 19.06L75.2627 18.8687C75.2627 18.7786 75.2404 18.7223 75.218 18.6886C75.1845 18.6548 75.1398 18.621 75.084 18.5985C75.151 18.5647 75.1957 18.5197 75.2292 18.4634C75.2627 18.4071 75.2739 18.3396 75.2739 18.2495C75.2739 18.0807 75.2069 17.9681 75.084 17.9006C75.0169 17.8668 74.9276 17.8555 74.827 17.8555H74.1903L74.1791 19.3189ZM74.3579 18.5197V18.0131H74.8047C74.8717 18.0131 74.9276 18.0244 74.9611 18.0469C75.0281 18.0807 75.0616 18.1595 75.0616 18.2608C75.0616 18.3621 75.0393 18.4296 74.9834 18.4634C74.9387 18.4972 74.8717 18.5197 74.7824 18.5197H74.3579ZM21.4292 20.3771L16 28.9775H19.7088L24.9369 20.7599L21.4292 20.3771ZM43.7825 20.1857V17H33.2258C31.7848 17.0901 31.1592 17.788 30.69 18.2833C30.1873 18.8124 29.908 19.9268 29.908 19.9268V17.0225H24.289C23.8645 17.0225 23.4623 17.2026 23.1607 17.6304C22.8479 18.0469 21.5632 20.1857 21.5632 20.1857H43.7825ZM72.4923 20.1857V17H61.1983C59.7684 17.0901 59.1316 17.788 58.6624 18.2833C58.1597 18.8124 57.8805 19.9268 57.8805 19.9268V20.1857H72.4923ZM47.4913 17.0113H44.3299V20.1857H47.4913V17.0113ZM57.847 17.0113H54.6967V20.1857H57.847V17.0113ZM57.847 21.334L54.7414 21.1426V24.8236C54.7414 24.8236 54.7302 25.8818 53.7136 25.8818H48.3962C48.3962 25.8818 47.4913 25.803 47.4913 24.8349V20.6473L44.3634 20.4221V26.0619C44.8661 28.7636 47.2903 28.9775 47.2903 28.9775C47.2903 28.9775 47.536 28.9887 47.5807 29H54.7861C54.7861 29 57.8693 28.7523 57.8693 25.758L57.847 21.334ZM26.6907 28.9775H41.4589C44.0283 28.4597 44.2964 26.0957 44.2964 26.0957C44.4193 25.3977 44.3523 24.8236 44.3523 24.8236C44.2741 24.3508 43.3804 22.257 41.4589 22.0769C40.3083 21.9644 30.0644 21.1426 30.0644 21.1426C30.2655 22.1782 30.7235 22.7073 31.0363 23C31.7513 23.6867 32.8795 23.8893 32.8795 23.8893C33.1476 23.9118 40.7775 24.5535 40.7775 24.5535C41.0233 24.5647 41.4813 24.6323 41.4701 25.2402C41.4701 25.3189 41.4031 25.848 40.8222 25.848H29.774V21.1201L26.7019 20.8949C26.6907 20.8949 26.6907 28.9775 26.6907 28.9775ZM57.8693 29H69.1745C72.0119 28.8311 72.4141 26.1182 72.4141 26.1182C72.5146 25.409 72.4364 24.8236 72.4364 24.8236C72.3582 24.182 71.4534 22.2458 69.5208 22.0544C68.3813 21.9418 58.0704 21.334 58.0704 21.334C58.372 22.4034 58.7853 22.7298 59.0981 23.0225C59.8131 23.7205 60.8743 23.878 60.8743 23.878C61.1424 23.9006 68.8505 24.5535 68.8505 24.5535C69.0963 24.5647 69.599 24.5872 69.599 25.1951C69.599 25.3752 69.5096 25.5666 69.3979 25.6679C69.3979 25.6679 69.1298 25.8143 68.8728 25.8143H57.9028L57.8693 29Z" fill="#00539B"/>
</svg>
