<svg width="93" height="46" viewBox="0 0 93 46" fill="none" xmlns="http://www.w3.org/2000/svg">
<rect x="0.303589" width="91.7144" height="46" rx="23" fill="#D9D9D9"/>
<rect x="28" y="6" width="36" height="34" fill="white"/>
<g clip-path="url(#clip0_26_46)">
<path d="M41.6526 26.8017C40.9332 26.7149 40.3516 26.4378 39.8844 25.9595C39.3066 25.3682 39 24.5711 39 23.6602C39 21.8293 40.2647 20.487 41.9867 20.4899C42.4408 20.4908 42.8936 20.6011 43.2934 20.8089C43.4839 20.908 43.7278 21.0772 43.8567 21.1999C43.9055 21.2464 43.9502 21.2844 43.9558 21.2844C43.9614 21.2844 43.9662 21.1294 43.9662 20.9402V20.5955H44.7119V26.7249H43.9662V26.0154L43.8981 26.0742C43.3981 26.5061 42.9428 26.7164 42.3395 26.7946C42.2074 26.8117 41.7723 26.8163 41.6526 26.8017ZM42.3403 25.9903C43.2417 25.8326 43.8667 25.169 44.0449 24.1801C44.0863 23.9508 44.0873 23.374 44.0469 23.148C43.9996 22.8845 43.9364 22.6824 43.8313 22.4592C43.521 21.8003 42.9743 21.401 42.2458 21.3009C41.9936 21.266 41.6252 21.2884 41.3842 21.3528C40.6813 21.5408 40.1392 22.0715 39.8938 22.8124C39.7919 23.1201 39.7713 23.2628 39.7713 23.6602C39.7713 23.9658 39.7767 24.0382 39.8107 24.1974C40.0149 25.1481 40.6695 25.8264 41.5411 25.991C41.7221 26.025 42.1437 26.0248 42.3403 25.9903ZM35.1486 26.7771C34.6501 26.7226 34.1897 26.5538 33.7959 26.2816C33.5757 26.1293 33.2314 25.7684 33.0812 25.5326C32.7145 24.9564 32.5385 24.265 32.5643 23.5012C32.588 22.8069 32.7733 22.214 33.1333 21.682C33.1857 21.6042 33.3204 21.4448 33.4321 21.3276C33.8315 20.9095 34.3124 20.6447 34.8919 20.524C35.1253 20.4753 35.6476 20.457 35.8904 20.4887C37.0091 20.6356 37.8471 21.4162 38.1349 22.5802C38.205 22.8637 38.2366 23.1051 38.2489 23.4526L38.2595 23.7572H33.3168L33.328 23.9383C33.3781 24.7434 33.8263 25.4646 34.4955 25.8168C34.8118 25.9833 35.1135 26.0556 35.4929 26.0561C36.1435 26.0569 36.6349 25.8474 37.0443 25.3956C37.1466 25.2827 37.3774 24.9595 37.4173 24.8738C37.4223 24.8631 38.0679 25.3036 38.0679 25.3175C38.0679 25.3603 37.8034 25.7271 37.6575 25.8862C37.1186 26.4746 36.4508 26.7646 35.5848 26.786C35.4262 26.7902 35.23 26.786 35.1486 26.7771ZM37.4831 22.9934C37.3428 22.0726 36.7398 21.405 35.8898 21.2295C35.7109 21.1926 35.2482 21.1968 35.0679 21.237C34.6395 21.3328 34.2821 21.526 33.9853 21.8226C33.671 22.1368 33.4616 22.5313 33.3495 23.0199L33.3383 23.0686H37.4943L37.4831 22.9934ZM59.9069 26.7758C58.6083 26.6498 57.6442 25.7327 57.3829 24.3756C57.2054 23.452 57.3701 22.489 57.828 21.7772C58.2664 21.095 58.8912 20.6731 59.6995 20.5125C59.9277 20.4672 60.6064 20.4674 60.8222 20.5131C61.3615 20.6272 61.8075 20.8719 62.1788 21.2579C62.7143 21.8141 63 22.6008 63 23.5181V23.7572L60.5381 23.7618L58.0764 23.7662L58.0808 23.9076C58.0988 24.464 58.3511 25.0459 58.7472 25.4437C59.0543 25.7523 59.4269 25.9476 59.8615 26.0283C60.0546 26.064 60.4696 26.0638 60.664 26.0283C61.2664 25.9169 61.7026 25.6084 62.0757 25.0292C62.129 24.9466 62.1788 24.8809 62.1866 24.8832C62.2067 24.8886 62.7842 25.2758 62.8088 25.3004C62.8348 25.3261 62.6759 25.5758 62.4899 25.8015C61.896 26.5211 60.9515 26.8774 59.9069 26.7758ZM62.2371 23.0199C62.2371 22.9932 62.2223 22.9071 62.2043 22.8284C62.0005 21.9426 61.4003 21.3528 60.5679 21.2199C60.2506 21.1692 59.8721 21.2041 59.551 21.3138C58.8565 21.551 58.3196 22.1508 58.1352 22.8948C58.1168 22.9692 58.1018 23.0387 58.1018 23.0491C58.1018 23.0629 58.6964 23.0686 60.1696 23.0686H62.2375L62.2373 23.0199H62.2371ZM29 23.6512V20.578H32.5255V21.3019L31.1398 21.3065L29.7543 21.3109L29.7499 24.018L29.7457 26.7249H29V23.6512ZM46.0169 22.4147V18.1227H46.7796V26.7072H46.0169V22.4147ZM48.0849 23.6423V20.5776H48.8305L48.8313 20.9796L48.8321 21.3814L48.895 21.3021C49.1022 21.0397 49.3158 20.855 49.5576 20.7292C49.8459 20.579 50.0995 20.5135 50.4577 20.4956C50.8709 20.4753 51.207 20.5421 51.5341 20.7094C51.881 20.8868 52.1306 21.1417 52.3659 21.5592C52.3819 21.5879 52.3919 21.58 52.4529 21.4865C52.7734 20.9973 53.2503 20.6737 53.8476 20.5402C54.0845 20.4872 54.6047 20.4818 54.8342 20.5298C55.2536 20.618 55.5839 20.7956 55.8571 21.0801C56.148 21.3831 56.3266 21.748 56.4363 22.2626L56.4817 22.4765L56.4873 24.5919L56.4927 26.707H55.7458V24.8189C55.7458 23.6416 55.7392 22.862 55.7282 22.7479C55.6585 22.0227 55.2984 21.4986 54.7355 21.303C54.5146 21.2271 54.2805 21.2019 54.0494 21.2291C53.3233 21.3111 52.8541 21.7204 52.6902 22.4147C52.6553 22.562 52.6545 22.605 52.6487 24.636L52.6427 26.707H51.8984V24.855C51.8984 23.748 51.8914 22.9133 51.881 22.7802C51.8117 21.8898 51.3427 21.3255 50.5934 21.2306C49.9098 21.1438 49.2001 21.5598 48.9427 22.1986C48.835 22.465 48.8412 22.3269 48.835 24.6186L48.8293 26.7072H48.0847V23.6425L48.0849 23.6423Z" fill="#676C73"/>
</g>
<defs>
<clipPath id="clip0_26_46">
<rect width="34" height="9" fill="white" transform="translate(29 18)"/>
</clipPath>
</defs>
</svg>
