<svg width="93" height="46" viewBox="0 0 93 46" fill="none" xmlns="http://www.w3.org/2000/svg">
<rect x="0.964355" width="91.7144" height="46" rx="23" fill="#D9D9D9"/>
<path d="M39.269 28.8662C37.3206 28.8662 35.5121 28.1422 34.3048 26.7997C33.3928 25.7854 32.9545 24.4076 32.9545 22.9896C32.9545 21.5888 33.4117 20.2016 34.3047 19.1926C35.4259 17.9266 37.4053 17.1338 39.269 17.1338C41.3313 17.1338 42.982 17.7774 44.2439 19.1961C45.1417 20.2056 45.5757 21.5867 45.5757 22.9897C45.5757 24.3497 45.1151 25.798 44.2439 26.7997C43.0688 28.1509 41.2222 28.8662 39.269 28.8662V27.3187C40.3031 27.3187 41.2623 26.8764 41.9322 26.0505C42.5975 25.2302 42.9075 24.2219 42.9075 22.9896C42.9075 21.8091 42.5731 20.7054 41.9322 19.9226C41.2713 19.116 40.2891 18.6621 39.269 18.6621C38.2457 18.6621 37.2629 19.1113 36.6014 19.9226C35.9639 20.7051 35.6287 21.812 35.6287 22.9896C35.6287 24.1636 35.9678 25.2698 36.6014 26.0506C37.2634 26.8666 38.2427 27.3189 39.269 27.3189V28.8663V28.8662ZM25.0287 17.1394C23.9865 17.1394 22.8025 17.3809 21.7965 17.9376C20.868 18.4509 20.108 19.2811 20.108 20.6574C20.1076 21.8969 20.7434 22.6228 20.7261 22.6027C20.9965 22.9112 21.4319 23.4364 22.5701 23.7448C23.0788 23.8827 24.1663 24.0944 25.2494 24.2346C26.3244 24.3751 27.3824 24.5087 27.8133 24.6438C28.1557 24.7518 28.7308 24.8989 28.7308 25.6983C28.7308 26.4944 28.1249 26.7375 28.0196 26.7902C27.9144 26.8417 27.1875 27.2549 25.881 27.2549C24.9163 27.2549 23.7566 26.8955 23.3339 26.7082C22.8466 26.4932 22.3354 26.209 21.8586 25.4874C21.74 25.3085 21.553 24.8164 21.553 24.3292H20.3705V28.4346H21.6848V27.88C21.6848 27.8168 21.7486 27.5571 21.9692 27.6806C22.2437 27.8351 23.0496 28.2327 23.8922 28.4507C24.5831 28.6297 25.0286 28.758 25.8875 28.758C27.289 28.758 28.0418 28.4752 28.5623 28.291C29.0526 28.1171 29.6585 27.8048 30.1506 27.3185C30.4172 27.0555 31.0017 26.3815 31.0017 25.1581C31.0017 23.9837 30.493 23.2548 30.314 23.0331C30.0703 22.7309 29.7725 22.4968 29.4622 22.3163C29.1919 22.1586 28.7653 21.9693 28.4163 21.8634C27.7388 21.6574 26.2069 21.4031 25.4743 21.3081C24.7061 21.2087 23.3735 21.0719 22.8413 20.8679C22.6799 20.8059 22.351 20.6117 22.351 20.1386C22.351 19.802 22.5014 19.5167 22.7987 19.2862C23.2707 18.9198 24.224 18.692 25.2177 18.692C26.3926 18.6867 27.3874 19.0195 28.0203 19.3701C28.2356 19.4892 28.4874 19.6602 28.6874 19.8625C28.9132 20.0905 29.23 20.5644 29.3446 21.2253H30.4063V17.6516H29.2209V18.067C29.2209 18.2011 29.1091 18.3753 28.8977 18.2313C28.3672 17.8865 26.8673 17.1425 25.0285 17.1394M51.0064 17.7888L56.7889 24.2547L56.7295 19.9013C56.7237 19.3305 56.6388 19.0922 56.1405 19.0922H55.0533V17.7899H59.9975V19.0922H58.937C58.4287 19.0922 58.3966 19.2935 58.3905 19.9013L58.4801 28.2196H56.7869L50.1265 20.8545L50.1279 26.0815C50.1338 26.6497 50.1553 26.9173 50.6278 26.9173H51.8152V28.219H46.9595V26.9174H48.0946C48.5186 26.9174 48.5018 26.4166 48.5018 26.0519V19.9508C48.5018 19.557 48.4572 19.0931 47.7915 19.0931H46.8704V17.7888H51.0064ZM65.6473 26.9149C65.6938 26.9149 65.9 26.9075 65.94 26.8924C66.0542 26.8483 66.1316 26.7474 66.1674 26.6422C66.1826 26.598 66.1901 26.4027 66.1901 26.3602L66.191 24.3022C66.191 24.2527 66.1881 24.2313 66.1202 24.121C66.0457 24.0006 63.0914 19.8523 62.9562 19.6697C62.7882 19.4429 62.4934 19.0923 62.0454 19.0923H61.018V17.7895H66.8162V19.0907H66.1172C65.9555 19.0907 65.8481 19.2807 65.9862 19.4919C65.9862 19.4919 67.937 22.3832 67.9555 22.4134C67.9736 22.4442 67.9892 22.4515 68.014 22.4234C68.0384 22.3947 70.0138 19.5183 70.0293 19.4956C70.1233 19.3562 70.0596 19.0922 69.857 19.0922H69.14V17.7895H73.892V19.0922H72.8304C72.4453 19.0922 72.2886 19.1805 71.9988 19.5863C71.8663 19.7721 68.8804 23.9948 68.7992 24.1092C68.7566 24.169 68.7603 24.2524 68.7603 24.3019V26.3597C68.7603 26.4014 68.7679 26.5971 68.783 26.641C68.819 26.7467 68.8968 26.8476 69.0109 26.8912C69.0508 26.9065 69.2543 26.914 69.3006 26.914H70.3866V28.2165H64.6183V26.9138L65.6475 26.9149H65.6473Z" fill="black"/>
</svg>
