<svg width="29" height="39" viewBox="0 0 29 39" fill="none" xmlns="http://www.w3.org/2000/svg">
<mask id="path-1-outside-1_7_83" maskUnits="userSpaceOnUse" x="0" y="-0.0524902" width="29" height="39" fill="#D9D9D9">
<rect fill="#D9D9D9" y="-0.0524902" width="29" height="39"/>
<path d="M14.5105 1.03095C14.2891 1.12452 14.0676 1.38518 13.9579 1.67925C13.6858 2.41444 13.9157 3.42366 14.4156 3.68766L14.5316 3.75115L14.5253 4.2992C14.5211 4.59996 14.5148 4.8506 14.5105 4.85728C14.5063 4.86396 14.0739 4.73363 13.5466 4.56321C13.0213 4.39611 11.182 3.80796 9.45859 3.25991C7.73523 2.71186 6.08992 2.1872 5.79883 2.09364C5.50984 2.00006 5.26516 1.9232 5.25672 1.9232C5.24828 1.9232 5.23984 1.88644 5.23984 1.83966C5.23984 1.58569 5.05844 1.32169 4.88336 1.32169C4.77156 1.32169 4.645 1.42194 4.58383 1.55895C4.53531 1.66923 4.50789 1.92654 4.53109 2.07024C4.54797 2.18052 4.64078 2.34761 4.71883 2.4111C4.79898 2.47794 4.96562 2.47794 5.04578 2.4111C5.1175 2.35095 5.21875 2.17384 5.21875 2.10366C5.21875 2.07692 5.2293 2.05687 5.24406 2.05687C5.28203 2.05687 5.67016 2.23065 5.68914 2.25738C5.69758 2.26741 4.93187 5.94001 3.98898 10.4146L2.27195 18.5485L1.63492 18.5585C1.10547 18.5652 1 18.5753 1 18.612C1 18.7256 1.24891 19.1768 1.46406 19.4475C2.13695 20.303 3.07562 20.831 4.35391 21.0782C4.70195 21.1451 4.84328 21.1518 5.67227 21.1518C6.43586 21.1551 6.65734 21.1451 6.9168 21.095C8.20773 20.8477 9.08101 20.3497 9.6843 19.511C9.8657 19.257 10.1125 18.7323 10.1125 18.5986C10.1125 18.5786 9.97117 18.5652 9.69062 18.5652C9.45859 18.5652 9.26875 18.5619 9.26875 18.5552C9.26875 18.5485 9.11266 17.8066 8.92281 16.9077C8.54945 15.1466 6.82609 7.01272 6.21016 4.10204C6.00344 3.12624 5.8368 2.32421 5.84312 2.32421C5.84945 2.32421 6.14477 2.46123 6.50125 2.62832C7.0982 2.90569 7.64875 3.163 9.14219 3.86143C9.45016 4.00513 10.1905 4.34933 10.7875 4.63004C11.3845 4.91075 12.1248 5.25495 12.4328 5.39865C12.7408 5.54234 13.3187 5.81303 13.7195 6.00017C14.1203 6.18731 14.4494 6.34437 14.4536 6.35105C14.4578 6.35774 14.4262 7.35358 14.3861 8.5633C14.3439 9.77303 14.2912 11.2969 14.268 11.9485C14.2448 12.6002 14.2068 13.6996 14.1836 14.388C14.1604 15.0764 14.1224 16.1759 14.0992 16.8275C14.076 17.4792 14.0191 19.1266 13.9727 20.4867C13.9262 21.8469 13.8693 23.501 13.8461 24.1627C13.8229 24.8244 13.7807 26.0575 13.7512 26.903C13.7216 27.7484 13.6795 28.9949 13.6562 29.6766C13.633 30.355 13.5993 31.2974 13.5824 31.7652C13.5655 32.2331 13.5423 32.9248 13.5297 33.3024C13.517 33.6801 13.4917 34.0777 13.4748 34.188C13.3968 34.6893 13.1099 35.097 12.6838 35.3175C12.4834 35.4245 12.3084 35.4679 11.2516 35.6751C9.51133 36.0193 9.04727 36.2031 8.53469 36.7512C8.26469 37.0419 8.02211 37.4696 7.9293 37.8239L7.89766 37.9475H14.6477H21.3977L21.3745 37.8539C21.269 37.4128 20.9695 36.9249 20.6024 36.5908C20.1426 36.1764 19.6152 35.9859 18.1176 35.6918C17.6894 35.6083 17.2105 35.508 17.0566 35.4713C16.5672 35.3543 16.2887 35.1705 16.0588 34.8062C15.8373 34.4554 15.7867 34.2214 15.7867 33.523C15.7867 33.0919 15.7593 32.2899 15.6602 29.6766C15.523 26.0742 15.4471 23.9455 15.3543 21.1217C15.3184 20.0289 15.272 18.6555 15.2362 17.7131C15.1855 16.3162 14.8417 6.48472 14.8459 6.47804C14.8459 6.4747 15.3184 6.62508 15.8922 6.80887C16.9975 7.15976 19.3262 7.90163 21.7541 8.67693C22.5599 8.9309 23.2223 9.14812 23.2265 9.1548C23.2328 9.16482 21.1403 19.1233 20.1067 23.9956L19.7798 25.5328L19.3136 25.5429C19.0562 25.5462 18.8453 25.5629 18.8453 25.5796C18.8453 25.5963 18.8875 25.6999 18.9402 25.8069C19.2566 26.4752 19.8895 27.1235 20.5961 27.5011C21.442 27.9523 22.3574 28.1561 23.5387 28.1561C25.5236 28.1561 26.9643 27.4978 27.6857 26.258C27.7595 26.131 27.8502 25.9439 27.8882 25.847C28.0105 25.5195 28.0633 25.5495 27.3862 25.5495H26.7871L26.5171 24.2696C26.3673 23.5679 25.7999 20.8878 25.2536 18.3146C23.4459 9.77637 23.3425 9.29181 23.3256 9.22832C23.313 9.17151 23.3172 9.16817 23.3657 9.18488C23.4227 9.20827 23.8424 9.34194 23.8572 9.34194C23.8614 9.34194 23.8656 9.39541 23.8656 9.4589C23.8656 9.59257 23.912 9.79308 23.9669 9.88665C24.028 9.99693 24.123 10.0537 24.239 10.0504C24.6208 10.0437 24.7347 9.24837 24.3909 8.97434C24.2432 8.85404 24.0977 8.89414 23.9669 9.09799L23.8888 9.21829L23.5239 9.0512C23.3235 8.95763 22.832 8.72705 22.4312 8.53991C22.0305 8.35277 21.4525 8.08209 21.1445 7.93839C20.8366 7.7947 20.2628 7.52736 19.8684 7.34356C17.9699 6.45465 17.2169 6.10376 16.5566 5.79298C16.1622 5.60918 15.6074 5.35186 15.3248 5.21819C14.8502 4.99763 14.808 4.9709 14.7953 4.89404C14.7869 4.8506 14.7742 4.57657 14.7658 4.29252L14.7489 3.7712L14.8565 3.75449C15.002 3.7311 15.2109 3.56067 15.3374 3.36351C15.7846 2.65505 15.6201 1.44533 15.0273 1.08442C14.8839 0.997532 14.6519 0.97414 14.5105 1.03095ZM5.80516 3.51723C5.8157 3.58741 6.04562 4.67348 6.31141 5.93333C6.5793 7.19318 7.21422 10.1907 7.72469 12.6002C8.23516 15.0062 8.72875 17.3355 8.82156 17.7699L8.99242 18.5652H5.77562C4.00797 18.5652 2.56094 18.5552 2.56094 18.5385C2.56094 18.5184 4.44039 9.60928 5.4318 4.92411C5.61109 4.08199 5.76297 3.39359 5.7693 3.39359C5.77773 3.39359 5.7925 3.45039 5.80516 3.51723ZM24.0112 13.7865C25.1924 19.3673 26.2956 24.5771 26.3948 25.0282C26.4538 25.3022 26.5023 25.5328 26.5023 25.5395C26.5023 25.5462 25.0553 25.5495 23.2855 25.5495C21.5158 25.5495 20.0687 25.5462 20.0687 25.5395C20.0687 25.5228 23.2391 10.4949 23.2666 10.3779C23.2729 10.3512 23.3383 10.6118 23.4121 10.9627C23.4859 11.3102 23.7559 12.5835 24.0112 13.7865Z"/>
</mask>
<path d="M14.5105 1.03095C14.2891 1.12452 14.0676 1.38518 13.9579 1.67925C13.6858 2.41444 13.9157 3.42366 14.4156 3.68766L14.5316 3.75115L14.5253 4.2992C14.5211 4.59996 14.5148 4.8506 14.5105 4.85728C14.5063 4.86396 14.0739 4.73363 13.5466 4.56321C13.0213 4.39611 11.182 3.80796 9.45859 3.25991C7.73523 2.71186 6.08992 2.1872 5.79883 2.09364C5.50984 2.00006 5.26516 1.9232 5.25672 1.9232C5.24828 1.9232 5.23984 1.88644 5.23984 1.83966C5.23984 1.58569 5.05844 1.32169 4.88336 1.32169C4.77156 1.32169 4.645 1.42194 4.58383 1.55895C4.53531 1.66923 4.50789 1.92654 4.53109 2.07024C4.54797 2.18052 4.64078 2.34761 4.71883 2.4111C4.79898 2.47794 4.96562 2.47794 5.04578 2.4111C5.1175 2.35095 5.21875 2.17384 5.21875 2.10366C5.21875 2.07692 5.2293 2.05687 5.24406 2.05687C5.28203 2.05687 5.67016 2.23065 5.68914 2.25738C5.69758 2.26741 4.93187 5.94001 3.98898 10.4146L2.27195 18.5485L1.63492 18.5585C1.10547 18.5652 1 18.5753 1 18.612C1 18.7256 1.24891 19.1768 1.46406 19.4475C2.13695 20.303 3.07562 20.831 4.35391 21.0782C4.70195 21.1451 4.84328 21.1518 5.67227 21.1518C6.43586 21.1551 6.65734 21.1451 6.9168 21.095C8.20773 20.8477 9.08101 20.3497 9.6843 19.511C9.8657 19.257 10.1125 18.7323 10.1125 18.5986C10.1125 18.5786 9.97117 18.5652 9.69062 18.5652C9.45859 18.5652 9.26875 18.5619 9.26875 18.5552C9.26875 18.5485 9.11266 17.8066 8.92281 16.9077C8.54945 15.1466 6.82609 7.01272 6.21016 4.10204C6.00344 3.12624 5.8368 2.32421 5.84312 2.32421C5.84945 2.32421 6.14477 2.46123 6.50125 2.62832C7.0982 2.90569 7.64875 3.163 9.14219 3.86143C9.45016 4.00513 10.1905 4.34933 10.7875 4.63004C11.3845 4.91075 12.1248 5.25495 12.4328 5.39865C12.7408 5.54234 13.3187 5.81303 13.7195 6.00017C14.1203 6.18731 14.4494 6.34437 14.4536 6.35105C14.4578 6.35774 14.4262 7.35358 14.3861 8.5633C14.3439 9.77303 14.2912 11.2969 14.268 11.9485C14.2448 12.6002 14.2068 13.6996 14.1836 14.388C14.1604 15.0764 14.1224 16.1759 14.0992 16.8275C14.076 17.4792 14.0191 19.1266 13.9727 20.4867C13.9262 21.8469 13.8693 23.501 13.8461 24.1627C13.8229 24.8244 13.7807 26.0575 13.7512 26.903C13.7216 27.7484 13.6795 28.9949 13.6562 29.6766C13.633 30.355 13.5993 31.2974 13.5824 31.7652C13.5655 32.2331 13.5423 32.9248 13.5297 33.3024C13.517 33.6801 13.4917 34.0777 13.4748 34.188C13.3968 34.6893 13.1099 35.097 12.6838 35.3175C12.4834 35.4245 12.3084 35.4679 11.2516 35.6751C9.51133 36.0193 9.04727 36.2031 8.53469 36.7512C8.26469 37.0419 8.02211 37.4696 7.9293 37.8239L7.89766 37.9475H14.6477H21.3977L21.3745 37.8539C21.269 37.4128 20.9695 36.9249 20.6024 36.5908C20.1426 36.1764 19.6152 35.9859 18.1176 35.6918C17.6894 35.6083 17.2105 35.508 17.0566 35.4713C16.5672 35.3543 16.2887 35.1705 16.0588 34.8062C15.8373 34.4554 15.7867 34.2214 15.7867 33.523C15.7867 33.0919 15.7593 32.2899 15.6602 29.6766C15.523 26.0742 15.4471 23.9455 15.3543 21.1217C15.3184 20.0289 15.272 18.6555 15.2362 17.7131C15.1855 16.3162 14.8417 6.48472 14.8459 6.47804C14.8459 6.4747 15.3184 6.62508 15.8922 6.80887C16.9975 7.15976 19.3262 7.90163 21.7541 8.67693C22.5599 8.9309 23.2223 9.14812 23.2265 9.1548C23.2328 9.16482 21.1403 19.1233 20.1067 23.9956L19.7798 25.5328L19.3136 25.5429C19.0562 25.5462 18.8453 25.5629 18.8453 25.5796C18.8453 25.5963 18.8875 25.6999 18.9402 25.8069C19.2566 26.4752 19.8895 27.1235 20.5961 27.5011C21.442 27.9523 22.3574 28.1561 23.5387 28.1561C25.5236 28.1561 26.9643 27.4978 27.6857 26.258C27.7595 26.131 27.8502 25.9439 27.8882 25.847C28.0105 25.5195 28.0633 25.5495 27.3862 25.5495H26.7871L26.5171 24.2696C26.3673 23.5679 25.7999 20.8878 25.2536 18.3146C23.4459 9.77637 23.3425 9.29181 23.3256 9.22832C23.313 9.17151 23.3172 9.16817 23.3657 9.18488C23.4227 9.20827 23.8424 9.34194 23.8572 9.34194C23.8614 9.34194 23.8656 9.39541 23.8656 9.4589C23.8656 9.59257 23.912 9.79308 23.9669 9.88665C24.028 9.99693 24.123 10.0537 24.239 10.0504C24.6208 10.0437 24.7347 9.24837 24.3909 8.97434C24.2432 8.85404 24.0977 8.89414 23.9669 9.09799L23.8888 9.21829L23.5239 9.0512C23.3235 8.95763 22.832 8.72705 22.4312 8.53991C22.0305 8.35277 21.4525 8.08209 21.1445 7.93839C20.8366 7.7947 20.2628 7.52736 19.8684 7.34356C17.9699 6.45465 17.2169 6.10376 16.5566 5.79298C16.1622 5.60918 15.6074 5.35186 15.3248 5.21819C14.8502 4.99763 14.808 4.9709 14.7953 4.89404C14.7869 4.8506 14.7742 4.57657 14.7658 4.29252L14.7489 3.7712L14.8565 3.75449C15.002 3.7311 15.2109 3.56067 15.3374 3.36351C15.7846 2.65505 15.6201 1.44533 15.0273 1.08442C14.8839 0.997532 14.6519 0.97414 14.5105 1.03095ZM5.80516 3.51723C5.8157 3.58741 6.04562 4.67348 6.31141 5.93333C6.5793 7.19318 7.21422 10.1907 7.72469 12.6002C8.23516 15.0062 8.72875 17.3355 8.82156 17.7699L8.99242 18.5652H5.77562C4.00797 18.5652 2.56094 18.5552 2.56094 18.5385C2.56094 18.5184 4.44039 9.60928 5.4318 4.92411C5.61109 4.08199 5.76297 3.39359 5.7693 3.39359C5.77773 3.39359 5.7925 3.45039 5.80516 3.51723ZM24.0112 13.7865C25.1924 19.3673 26.2956 24.5771 26.3948 25.0282C26.4538 25.3022 26.5023 25.5328 26.5023 25.5395C26.5023 25.5462 25.0553 25.5495 23.2855 25.5495C21.5158 25.5495 20.0687 25.5462 20.0687 25.5395C20.0687 25.5228 23.2391 10.4949 23.2666 10.3779C23.2729 10.3512 23.3383 10.6118 23.4121 10.9627C23.4859 11.3102 23.7559 12.5835 24.0112 13.7865Z" fill="#D9D9D9"/>
<path d="M14.5105 1.03095C14.2891 1.12452 14.0676 1.38518 13.9579 1.67925C13.6858 2.41444 13.9157 3.42366 14.4156 3.68766L14.5316 3.75115L14.5253 4.2992C14.5211 4.59996 14.5148 4.8506 14.5105 4.85728C14.5063 4.86396 14.0739 4.73363 13.5466 4.56321C13.0213 4.39611 11.182 3.80796 9.45859 3.25991C7.73523 2.71186 6.08992 2.1872 5.79883 2.09364C5.50984 2.00006 5.26516 1.9232 5.25672 1.9232C5.24828 1.9232 5.23984 1.88644 5.23984 1.83966C5.23984 1.58569 5.05844 1.32169 4.88336 1.32169C4.77156 1.32169 4.645 1.42194 4.58383 1.55895C4.53531 1.66923 4.50789 1.92654 4.53109 2.07024C4.54797 2.18052 4.64078 2.34761 4.71883 2.4111C4.79898 2.47794 4.96562 2.47794 5.04578 2.4111C5.1175 2.35095 5.21875 2.17384 5.21875 2.10366C5.21875 2.07692 5.2293 2.05687 5.24406 2.05687C5.28203 2.05687 5.67016 2.23065 5.68914 2.25738C5.69758 2.26741 4.93187 5.94001 3.98898 10.4146L2.27195 18.5485L1.63492 18.5585C1.10547 18.5652 1 18.5753 1 18.612C1 18.7256 1.24891 19.1768 1.46406 19.4475C2.13695 20.303 3.07562 20.831 4.35391 21.0782C4.70195 21.1451 4.84328 21.1518 5.67227 21.1518C6.43586 21.1551 6.65734 21.1451 6.9168 21.095C8.20773 20.8477 9.08101 20.3497 9.6843 19.511C9.8657 19.257 10.1125 18.7323 10.1125 18.5986C10.1125 18.5786 9.97117 18.5652 9.69062 18.5652C9.45859 18.5652 9.26875 18.5619 9.26875 18.5552C9.26875 18.5485 9.11266 17.8066 8.92281 16.9077C8.54945 15.1466 6.82609 7.01272 6.21016 4.10204C6.00344 3.12624 5.8368 2.32421 5.84312 2.32421C5.84945 2.32421 6.14477 2.46123 6.50125 2.62832C7.0982 2.90569 7.64875 3.163 9.14219 3.86143C9.45016 4.00513 10.1905 4.34933 10.7875 4.63004C11.3845 4.91075 12.1248 5.25495 12.4328 5.39865C12.7408 5.54234 13.3187 5.81303 13.7195 6.00017C14.1203 6.18731 14.4494 6.34437 14.4536 6.35105C14.4578 6.35774 14.4262 7.35358 14.3861 8.5633C14.3439 9.77303 14.2912 11.2969 14.268 11.9485C14.2448 12.6002 14.2068 13.6996 14.1836 14.388C14.1604 15.0764 14.1224 16.1759 14.0992 16.8275C14.076 17.4792 14.0191 19.1266 13.9727 20.4867C13.9262 21.8469 13.8693 23.501 13.8461 24.1627C13.8229 24.8244 13.7807 26.0575 13.7512 26.903C13.7216 27.7484 13.6795 28.9949 13.6562 29.6766C13.633 30.355 13.5993 31.2974 13.5824 31.7652C13.5655 32.2331 13.5423 32.9248 13.5297 33.3024C13.517 33.6801 13.4917 34.0777 13.4748 34.188C13.3968 34.6893 13.1099 35.097 12.6838 35.3175C12.4834 35.4245 12.3084 35.4679 11.2516 35.6751C9.51133 36.0193 9.04727 36.2031 8.53469 36.7512C8.26469 37.0419 8.02211 37.4696 7.9293 37.8239L7.89766 37.9475H14.6477H21.3977L21.3745 37.8539C21.269 37.4128 20.9695 36.9249 20.6024 36.5908C20.1426 36.1764 19.6152 35.9859 18.1176 35.6918C17.6894 35.6083 17.2105 35.508 17.0566 35.4713C16.5672 35.3543 16.2887 35.1705 16.0588 34.8062C15.8373 34.4554 15.7867 34.2214 15.7867 33.523C15.7867 33.0919 15.7593 32.2899 15.6602 29.6766C15.523 26.0742 15.4471 23.9455 15.3543 21.1217C15.3184 20.0289 15.272 18.6555 15.2362 17.7131C15.1855 16.3162 14.8417 6.48472 14.8459 6.47804C14.8459 6.4747 15.3184 6.62508 15.8922 6.80887C16.9975 7.15976 19.3262 7.90163 21.7541 8.67693C22.5599 8.9309 23.2223 9.14812 23.2265 9.1548C23.2328 9.16482 21.1403 19.1233 20.1067 23.9956L19.7798 25.5328L19.3136 25.5429C19.0562 25.5462 18.8453 25.5629 18.8453 25.5796C18.8453 25.5963 18.8875 25.6999 18.9402 25.8069C19.2566 26.4752 19.8895 27.1235 20.5961 27.5011C21.442 27.9523 22.3574 28.1561 23.5387 28.1561C25.5236 28.1561 26.9643 27.4978 27.6857 26.258C27.7595 26.131 27.8502 25.9439 27.8882 25.847C28.0105 25.5195 28.0633 25.5495 27.3862 25.5495H26.7871L26.5171 24.2696C26.3673 23.5679 25.7999 20.8878 25.2536 18.3146C23.4459 9.77637 23.3425 9.29181 23.3256 9.22832C23.313 9.17151 23.3172 9.16817 23.3657 9.18488C23.4227 9.20827 23.8424 9.34194 23.8572 9.34194C23.8614 9.34194 23.8656 9.39541 23.8656 9.4589C23.8656 9.59257 23.912 9.79308 23.9669 9.88665C24.028 9.99693 24.123 10.0537 24.239 10.0504C24.6208 10.0437 24.7347 9.24837 24.3909 8.97434C24.2432 8.85404 24.0977 8.89414 23.9669 9.09799L23.8888 9.21829L23.5239 9.0512C23.3235 8.95763 22.832 8.72705 22.4312 8.53991C22.0305 8.35277 21.4525 8.08209 21.1445 7.93839C20.8366 7.7947 20.2628 7.52736 19.8684 7.34356C17.9699 6.45465 17.2169 6.10376 16.5566 5.79298C16.1622 5.60918 15.6074 5.35186 15.3248 5.21819C14.8502 4.99763 14.808 4.9709 14.7953 4.89404C14.7869 4.8506 14.7742 4.57657 14.7658 4.29252L14.7489 3.7712L14.8565 3.75449C15.002 3.7311 15.2109 3.56067 15.3374 3.36351C15.7846 2.65505 15.6201 1.44533 15.0273 1.08442C14.8839 0.997532 14.6519 0.97414 14.5105 1.03095ZM5.80516 3.51723C5.8157 3.58741 6.04562 4.67348 6.31141 5.93333C6.5793 7.19318 7.21422 10.1907 7.72469 12.6002C8.23516 15.0062 8.72875 17.3355 8.82156 17.7699L8.99242 18.5652H5.77562C4.00797 18.5652 2.56094 18.5552 2.56094 18.5385C2.56094 18.5184 4.44039 9.60928 5.4318 4.92411C5.61109 4.08199 5.76297 3.39359 5.7693 3.39359C5.77773 3.39359 5.7925 3.45039 5.80516 3.51723ZM24.0112 13.7865C25.1924 19.3673 26.2956 24.5771 26.3948 25.0282C26.4538 25.3022 26.5023 25.5328 26.5023 25.5395C26.5023 25.5462 25.0553 25.5495 23.2855 25.5495C21.5158 25.5495 20.0687 25.5462 20.0687 25.5395C20.0687 25.5228 23.2391 10.4949 23.2666 10.3779C23.2729 10.3512 23.3383 10.6118 23.4121 10.9627C23.4859 11.3102 23.7559 12.5835 24.0112 13.7865Z" stroke="#D9D9D9" stroke-width="2" mask="url(#path-1-outside-1_7_83)"/>
</svg>
