<?xml version="1.0" encoding="UTF-8" standalone="no"?>
<svg
   xmlns:dc="http://purl.org/dc/elements/1.1/"
   xmlns:cc="http://creativecommons.org/ns#"
   xmlns:rdf="http://www.w3.org/1999/02/22-rdf-syntax-ns#"
   xmlns:svg="http://www.w3.org/2000/svg"
   xmlns="http://www.w3.org/2000/svg"
   xmlns:sodipodi="http://sodipodi.sourceforge.net/DTD/sodipodi-0.dtd"
   xmlns:inkscape="http://www.inkscape.org/namespaces/inkscape"
   version="1.0"
   x="0px"
   y="0px"
   viewBox="0 0 100 100"
   enable-background="new 0 0 100 100"
   xml:space="preserve"
   id="svg50"
   sodipodi:docname="noun_legos_675209.svg"
   width="100"
   height="100"
   inkscape:version="0.92.4 (5da689c313, 2019-01-14)"><metadata
     id="metadata56"><rdf:RDF><cc:Work
         rdf:about=""><dc:format>image/svg+xml</dc:format><dc:type
           rdf:resource="http://purl.org/dc/dcmitype/StillImage" /><dc:title></dc:title></cc:Work></rdf:RDF></metadata><defs
     id="defs54" /><sodipodi:namedview
     pagecolor="#737373"
     bordercolor="#737373"
     borderopacity="1"
     objecttolerance="10"
     gridtolerance="10"
     guidetolerance="10"
     inkscape:pageopacity="0"
     inkscape:pageshadow="2"
     inkscape:window-width="640"
     inkscape:window-height="480"
     id="namedview52"
     showgrid="false"
     inkscape:zoom="1.888"
     inkscape:cx="50"
     inkscape:cy="62.673592"
     inkscape:window-x="0"
     inkscape:window-y="28"
     inkscape:window-maximized="0"
     inkscape:current-layer="svg50" /><g
     id="g3783"
     transform="matrix(1.1905285,0,0,1.1905285,-9.2252747,20.60553)"><polygon
       transform="translate(0,-25)"
       style="fill:none;stroke:#737373;stroke-linecap:round;stroke-linejoin:round;stroke-miterlimit:10"
       id="polygon2"
       points="36.667,67.619 10,56.191 10,71.431 36.667,82.859 "
       stroke-miterlimit="10" /><ellipse
       style="fill:none;stroke:#737373;stroke-linecap:round;stroke-linejoin:round;stroke-miterlimit:10"
       id="ellipse4"
       ry="1.633"
       rx="3.8099999"
       cy="20.443001"
       cx="36.666"
       stroke-miterlimit="10" /><path
       style="fill:none;stroke:#737373;stroke-linecap:round;stroke-linejoin:round;stroke-miterlimit:10"
       inkscape:connector-curvature="0"
       id="path6"
       d="m 32.856,24.798 c 0,0.899 1.705,1.633 3.811,1.633 2.104,0 3.809,-0.733 3.809,-1.633 v -4.354 c 0,0.899 -1.706,1.633 -3.809,1.633 -2.105,0 -3.811,-0.733 -3.811,-1.633 z"
       stroke-miterlimit="10" /><path
       style="fill:none;stroke:#737373;stroke-linecap:round;stroke-linejoin:round;stroke-miterlimit:10"
       inkscape:connector-curvature="0"
       id="path8"
       d="m 40.476,31.87 c 0,0.901 -1.706,1.633 -3.809,1.633 -2.105,0 -3.811,-0.731 -3.811,-1.633 0,-0.898 1.705,-1.633 3.811,-1.633 2.103,0 3.809,0.735 3.809,1.633 z"
       stroke-miterlimit="10" /><path
       style="fill:none;stroke:#737373;stroke-linecap:round;stroke-linejoin:round;stroke-miterlimit:10"
       inkscape:connector-curvature="0"
       id="path10"
       d="m 32.856,36.225 c 0,0.901 1.705,1.634 3.811,1.634 2.104,0 3.809,-0.732 3.809,-1.634 V 31.87 c 0,0.901 -1.706,1.633 -3.809,1.633 -2.105,0 -3.811,-0.731 -3.811,-1.633 z"
       stroke-miterlimit="10" /><ellipse
       style="fill:none;stroke:#737373;stroke-linecap:round;stroke-linejoin:round;stroke-miterlimit:10"
       id="ellipse12"
       ry="1.633"
       rx="3.8110001"
       cy="26.157001"
       cx="50.000999"
       stroke-miterlimit="10" /><path
       style="fill:none;stroke:#737373;stroke-linecap:round;stroke-linejoin:round;stroke-miterlimit:10"
       inkscape:connector-curvature="0"
       id="path14"
       d="m 46.19,30.512 c 0,0.9 1.705,1.633 3.811,1.633 2.106,0 3.811,-0.732 3.811,-1.633 v -4.354 c 0,0.9 -1.705,1.633 -3.811,1.633 -2.106,0 -3.811,-0.732 -3.811,-1.633 z"
       stroke-miterlimit="10" /><ellipse
       style="fill:none;stroke:#737373;stroke-linecap:round;stroke-linejoin:round;stroke-miterlimit:10"
       id="ellipse16"
       ry="1.633"
       rx="3.809"
       cy="26.157001"
       cx="23.334"
       stroke-miterlimit="10" /><path
       style="fill:none;stroke:#737373;stroke-linecap:round;stroke-linejoin:round;stroke-miterlimit:10"
       inkscape:connector-curvature="0"
       id="path18"
       d="m 19.525,30.512 c 0,0.9 1.706,1.633 3.809,1.633 2.102,0 3.809,-0.732 3.809,-1.633 v -4.354 c 0,0.9 -1.707,1.633 -3.809,1.633 -2.104,0 -3.809,-0.732 -3.809,-1.633 z"
       stroke-miterlimit="10" /><polygon
       transform="translate(0,-25)"
       style="fill:none;stroke:#737373;stroke-linecap:round;stroke-linejoin:round;stroke-miterlimit:10"
       id="polygon20"
       points="89.998,60.002 89.998,44.763 36.667,67.619 36.667,82.859 "
       stroke-miterlimit="10" /><polygon
       transform="translate(0,-25)"
       style="fill:none;stroke:#737373;stroke-linecap:round;stroke-linejoin:round;stroke-miterlimit:10"
       id="polygon22"
       points="63.333,40.951 89.998,29.523 89.998,44.763 63.333,56.191 "
       stroke-miterlimit="10" /><path
       style="fill:none;stroke:#737373;stroke-linecap:round;stroke-linejoin:round;stroke-miterlimit:10"
       inkscape:connector-curvature="0"
       id="path24"
       d="m 67.142,-6.227 c 0,0.901 -1.705,1.634 -3.809,1.634 -2.105,0 -3.811,-0.733 -3.811,-1.634 0,-0.898 1.705,-1.633 3.811,-1.633 2.104,0.001 3.809,0.735 3.809,1.633 z"
       stroke-miterlimit="10" /><path
       style="fill:none;stroke:#737373;stroke-linecap:round;stroke-linejoin:round;stroke-miterlimit:10"
       inkscape:connector-curvature="0"
       id="path26"
       d="m 59.522,-1.871 c 0,0.9 1.705,1.633 3.811,1.633 2.104,0 3.809,-0.732 3.809,-1.633 v -4.356 c 0,0.901 -1.705,1.634 -3.809,1.634 -2.105,0 -3.811,-0.733 -3.811,-1.634 z"
       stroke-miterlimit="10" /><ellipse
       style="fill:none;stroke:#737373;stroke-linecap:round;stroke-linejoin:round;stroke-miterlimit:10"
       id="ellipse28"
       ry="1.633"
       rx="3.8099999"
       cy="5.2019997"
       cx="63.332001"
       stroke-miterlimit="10" /><path
       style="fill:none;stroke:#000000;stroke-linecap:round;stroke-linejoin:round;stroke-miterlimit:10"
       inkscape:connector-curvature="0"
       id="path30"
       d="m 59.522,9.556 c 0,0.901 1.705,1.633 3.811,1.633 2.104,0 3.809,-0.731 3.809,-1.633 V 5.202 c 0,0.902 -1.705,1.633 -3.809,1.633 -2.105,0 -3.811,-0.73 -3.811,-1.633 z"
       stroke-miterlimit="10" /><ellipse
       style="fill:none;stroke:#737373;stroke-linecap:round;stroke-linejoin:round;stroke-miterlimit:10"
       id="ellipse32"
       ry="1.631"
       rx="3.809"
       cy="-0.51000023"
       cx="76.667999"
       stroke-miterlimit="10" /><path
       style="fill:none;stroke:#737373;stroke-linecap:round;stroke-linejoin:round;stroke-miterlimit:10"
       inkscape:connector-curvature="0"
       id="path34"
       d="m 72.859,3.844 c 0,0.899 1.705,1.631 3.807,1.631 2.105,0 3.811,-0.731 3.811,-1.631 V -0.51 c 0,0.899 -1.705,1.631 -3.811,1.631 -2.102,0 -3.807,-0.731 -3.807,-1.631 z"
       stroke-miterlimit="10" /><ellipse
       style="fill:none;stroke:#737373;stroke-linecap:round;stroke-linejoin:round;stroke-miterlimit:10"
       id="ellipse36"
       ry="1.631"
       rx="3.8110001"
       cy="-0.51000023"
       cx="50.000999"
       stroke-miterlimit="10" /><path
       style="fill:none;stroke:#737373;stroke-linecap:round;stroke-linejoin:round;stroke-miterlimit:10"
       inkscape:connector-curvature="0"
       id="path38"
       d="m 46.19,3.844 c 0,0.899 1.705,1.631 3.811,1.631 2.106,0 3.811,-0.731 3.811,-1.631 V -0.51 c 0,0.899 -1.705,1.631 -3.811,1.631 -2.106,0 -3.811,-0.731 -3.811,-1.631 z"
       stroke-miterlimit="10" /><path
       style="fill:none;stroke:#737373;stroke-linecap:round;stroke-linejoin:round;stroke-miterlimit:10"
       inkscape:connector-curvature="0"
       id="path40"
       d="m 36.667,4.523 v 14.288 c 2.104,0 3.809,0.731 3.809,1.633 v 0.95 l 7.756,3.325 c 0.533,-0.121 1.129,-0.193 1.77,-0.193 2.105,0 3.811,0.73 3.811,1.632 v 0.952 l 9.521,4.082 v -15.24 z"
       stroke-miterlimit="10" /><path
       style="fill:none;stroke:#737373;stroke-linecap:round;stroke-linejoin:round;stroke-miterlimit:10"
       inkscape:connector-curvature="0"
       id="path42"
       d="m 53.812,27.109 v 3.402 c 0,0.9 -1.705,1.633 -3.811,1.633 -2.106,0 -3.811,-0.732 -3.811,-1.633 v -4.354 c 0,-0.626 0.834,-1.163 2.041,-1.438 -2.881,-1.235 -5.652,-2.422 -7.756,-3.325 v 3.404 c 0,0.899 -1.706,1.633 -3.809,1.633 -2.105,0 -3.811,-0.733 -3.811,-1.633 v -3.4 l -7.754,3.321 c 1.209,0.275 2.041,0.813 2.041,1.438 v 4.354 c 0,0.9 -1.707,1.633 -3.809,1.633 -2.104,0 -3.809,-0.732 -3.809,-1.633 v -3.402 l -9.523,4.082 c 0,0 26.667,11.428 26.665,11.428 L 63.334,31.191 c 10e-4,0 -4.343,-1.861 -9.522,-4.082 z"
       stroke-miterlimit="10" /><path
       style="fill:none;stroke:#737373;stroke-linecap:round;stroke-linejoin:round;stroke-miterlimit:10"
       inkscape:connector-curvature="0"
       id="path44"
       d="m 80.477,0.441 v 3.403 c 0,0.899 -1.705,1.631 -3.809,1.631 -2.104,0 -3.809,-0.731 -3.809,-1.631 V -0.51 c 0,-0.627 0.83,-1.164 2.039,-1.438 -2.885,-1.236 -5.649,-2.42 -7.757,-3.325 v 3.403 c 0,0.9 -1.705,1.633 -3.809,1.633 -2.105,0 -3.811,-0.732 -3.811,-1.633 v -3.401 l -7.752,3.323 c 1.207,0.274 2.041,0.812 2.041,1.438 v 4.354 c 0,0.899 -1.705,1.631 -3.811,1.631 -2.106,0 -3.811,-0.731 -3.811,-1.631 V 0.441 l -9.522,4.082 c 0,0 26.667,11.428 26.665,11.428 L 90,4.523 c 0,0 -4.344,-1.862 -9.523,-4.082 z"
       stroke-miterlimit="10" /></g></svg>