<svg width="92" height="46" viewBox="0 0 92 46" fill="none" xmlns="http://www.w3.org/2000/svg">
<rect width="91.7144" height="46" rx="23" fill="#D9D9D9"/>
<path d="M22.944 27V21.4H25.272C25.864 21.4 26.328 21.5227 26.664 21.768C27.0053 22.008 27.176 22.3627 27.176 22.832C27.176 23.296 27.0133 23.648 26.688 23.888C26.3627 24.1227 25.936 24.24 25.408 24.24L25.544 24.04C26.168 24.04 26.6427 24.1627 26.968 24.408C27.2933 24.6533 27.456 25.0133 27.456 25.488C27.456 25.968 27.2853 26.3413 26.944 26.608C26.608 26.8693 26.1013 27 25.424 27H22.944ZM23.528 26.528H25.424C25.8987 26.528 26.2587 26.44 26.504 26.264C26.7493 26.088 26.872 25.816 26.872 25.448C26.872 25.0853 26.7493 24.8187 26.504 24.648C26.2587 24.4773 25.8987 24.392 25.424 24.392H23.528V26.528ZM23.528 23.936H25.24C25.672 23.936 26.0027 23.8507 26.232 23.68C26.4667 23.504 26.584 23.2453 26.584 22.904C26.584 22.5627 26.4667 22.3067 26.232 22.136C26.0027 21.96 25.672 21.872 25.24 21.872H23.528V23.936ZM30.5602 27.04C30.1442 27.04 29.7709 26.9493 29.4402 26.768C29.1149 26.5813 28.8589 26.328 28.6722 26.008C28.4855 25.6827 28.3922 25.312 28.3922 24.896C28.3922 24.4747 28.4855 24.104 28.6722 23.784C28.8589 23.464 29.1149 23.2133 29.4402 23.032C29.7709 22.8507 30.1442 22.76 30.5602 22.76C30.9175 22.76 31.2402 22.8293 31.5282 22.968C31.8162 23.1067 32.0429 23.3147 32.2082 23.592L31.7842 23.88C31.6402 23.6667 31.4615 23.5093 31.2482 23.408C31.0349 23.3067 30.8029 23.256 30.5522 23.256C30.2535 23.256 29.9842 23.3253 29.7442 23.464C29.5042 23.5973 29.3149 23.7867 29.1762 24.032C29.0375 24.2773 28.9682 24.5653 28.9682 24.896C28.9682 25.2267 29.0375 25.5147 29.1762 25.76C29.3149 26.0053 29.5042 26.1973 29.7442 26.336C29.9842 26.4693 30.2535 26.536 30.5522 26.536C30.8029 26.536 31.0349 26.4853 31.2482 26.384C31.4615 26.2827 31.6402 26.128 31.7842 25.92L32.2082 26.208C32.0429 26.48 31.8162 26.688 31.5282 26.832C31.2402 26.9707 30.9175 27.04 30.5602 27.04ZM33.308 27V22.8H33.876V27H33.308ZM33.596 21.872C33.4787 21.872 33.38 21.832 33.3 21.752C33.22 21.672 33.18 21.576 33.18 21.464C33.18 21.352 33.22 21.2587 33.3 21.184C33.38 21.104 33.4787 21.064 33.596 21.064C33.7133 21.064 33.812 21.1013 33.892 21.176C33.972 21.2507 34.012 21.344 34.012 21.456C34.012 21.5733 33.972 21.672 33.892 21.752C33.8173 21.832 33.7187 21.872 33.596 21.872ZM39.4773 27.048C39.1359 27.048 38.8319 26.992 38.5653 26.88C38.3039 26.768 38.0799 26.5973 37.8933 26.368C37.7066 26.1387 37.5653 25.856 37.4693 25.52C37.3733 25.1787 37.3253 24.784 37.3253 24.336C37.3253 23.936 37.3626 23.5867 37.4373 23.288C37.5119 22.984 37.6159 22.7227 37.7493 22.504C37.8826 22.2853 38.0373 22.1013 38.2133 21.952C38.3946 21.7973 38.5893 21.6747 38.7973 21.584C39.0106 21.488 39.2293 21.416 39.4533 21.368L41.3413 20.928L41.4373 21.456L39.6613 21.856C39.5493 21.8827 39.4133 21.92 39.2533 21.968C39.0986 22.016 38.9386 22.088 38.7733 22.184C38.6133 22.28 38.4639 22.4133 38.3253 22.584C38.1866 22.7547 38.0746 22.976 37.9893 23.248C37.9093 23.5147 37.8693 23.848 37.8693 24.248C37.8693 24.3333 37.8719 24.4027 37.8773 24.456C37.8826 24.504 37.8879 24.5573 37.8933 24.616C37.9039 24.6693 37.9119 24.7493 37.9173 24.856L37.6693 24.648C37.7279 24.3227 37.8479 24.04 38.0293 23.8C38.2106 23.5547 38.4373 23.3653 38.7093 23.232C38.9866 23.0933 39.2933 23.024 39.6293 23.024C40.0186 23.024 40.3653 23.1093 40.6693 23.28C40.9733 23.4453 41.2106 23.6773 41.3813 23.976C41.5573 24.2747 41.6453 24.6213 41.6453 25.016C41.6453 25.4053 41.5546 25.7547 41.3733 26.064C41.1973 26.3733 40.9466 26.616 40.6213 26.792C40.2959 26.9627 39.9146 27.048 39.4773 27.048ZM39.5413 26.576C39.8399 26.576 40.1039 26.5093 40.3333 26.376C40.5626 26.2373 40.7413 26.0507 40.8693 25.816C41.0026 25.5813 41.0693 25.3173 41.0693 25.024C41.0693 24.736 41.0026 24.48 40.8693 24.256C40.7413 24.032 40.5626 23.856 40.3333 23.728C40.1039 23.5947 39.8373 23.528 39.5333 23.528C39.2346 23.528 38.9706 23.592 38.7413 23.72C38.5119 23.8427 38.3306 24.016 38.1973 24.24C38.0693 24.464 38.0053 24.7227 38.0053 25.016C38.0053 25.3093 38.0693 25.5733 38.1973 25.808C38.3306 26.0427 38.5119 26.2293 38.7413 26.368C38.9759 26.5067 39.2426 26.576 39.5413 26.576ZM45.0307 27.04C44.668 27.04 44.34 26.9573 44.0467 26.792C43.7534 26.6213 43.5187 26.3787 43.3427 26.064C43.172 25.744 43.0867 25.3547 43.0867 24.896C43.0867 24.4373 43.172 24.0507 43.3427 23.736C43.5134 23.416 43.7454 23.1733 44.0387 23.008C44.332 22.8427 44.6627 22.76 45.0307 22.76C45.4307 22.76 45.788 22.8507 46.1027 23.032C46.4227 23.208 46.6734 23.4587 46.8547 23.784C47.036 24.104 47.1267 24.4747 47.1267 24.896C47.1267 25.3227 47.036 25.696 46.8547 26.016C46.6734 26.336 46.4227 26.5867 46.1027 26.768C45.788 26.9493 45.4307 27.04 45.0307 27.04ZM42.8627 28.552V22.8H43.4067V24.064L43.3507 24.904L43.4307 25.752V28.552H42.8627ZM44.9907 26.536C45.2894 26.536 45.556 26.4693 45.7907 26.336C46.0254 26.1973 46.212 26.0053 46.3507 25.76C46.4894 25.5093 46.5587 25.2213 46.5587 24.896C46.5587 24.5707 46.4894 24.2853 46.3507 24.04C46.212 23.7947 46.0254 23.6027 45.7907 23.464C45.556 23.3253 45.2894 23.256 44.9907 23.256C44.692 23.256 44.4227 23.3253 44.1827 23.464C43.948 23.6027 43.7614 23.7947 43.6227 24.04C43.4894 24.2853 43.4227 24.5707 43.4227 24.896C43.4227 25.2213 43.4894 25.5093 43.6227 25.76C43.7614 26.0053 43.948 26.1973 44.1827 26.336C44.4227 26.4693 44.692 26.536 44.9907 26.536ZM50.1471 27.04C49.7097 27.04 49.3257 26.9493 48.9951 26.768C48.6644 26.5813 48.4057 26.328 48.2191 26.008C48.0324 25.6827 47.9391 25.312 47.9391 24.896C47.9391 24.48 48.0271 24.112 48.2031 23.792C48.3844 23.472 48.6297 23.2213 48.9391 23.04C49.2537 22.8533 49.6057 22.76 49.9951 22.76C50.3897 22.76 50.7391 22.8507 51.0431 23.032C51.3524 23.208 51.5951 23.4587 51.7711 23.784C51.9471 24.104 52.0351 24.4747 52.0351 24.896C52.0351 24.9227 52.0324 24.952 52.0271 24.984C52.0271 25.0107 52.0271 25.04 52.0271 25.072H48.3711V24.648H51.7231L51.4991 24.816C51.4991 24.512 51.4324 24.2427 51.2991 24.008C51.1711 23.768 50.9951 23.5813 50.7711 23.448C50.5471 23.3147 50.2884 23.248 49.9951 23.248C49.7071 23.248 49.4484 23.3147 49.2191 23.448C48.9897 23.5813 48.8111 23.768 48.6831 24.008C48.5551 24.248 48.4911 24.5227 48.4911 24.832V24.92C48.4911 25.24 48.5604 25.5227 48.6991 25.768C48.8431 26.008 49.0404 26.1973 49.2911 26.336C49.5471 26.4693 49.8377 26.536 50.1631 26.536C50.4191 26.536 50.6564 26.4907 50.8751 26.4C51.0991 26.3093 51.2911 26.1707 51.4511 25.984L51.7711 26.352C51.5844 26.576 51.3497 26.7467 51.0671 26.864C50.7897 26.9813 50.4831 27.04 50.1471 27.04ZM53.2924 27V22.8H53.8604V24.656H56.5084V22.8H57.0764V27H56.5084V25.144H53.8604V27H53.2924ZM61.5708 26.728V23.296H59.5468L59.4988 24.232C59.4881 24.5147 59.4695 24.792 59.4428 25.064C59.4215 25.336 59.3815 25.5867 59.3228 25.816C59.2695 26.04 59.1921 26.224 59.0908 26.368C58.9895 26.5067 58.8588 26.5867 58.6988 26.608L58.1308 26.504C58.2961 26.5093 58.4321 26.4507 58.5388 26.328C58.6455 26.2 58.7281 26.0267 58.7868 25.808C58.8455 25.5893 58.8881 25.3413 58.9148 25.064C58.9415 24.7813 58.9628 24.4933 58.9788 24.2L59.0348 22.8H62.1388V26.728H61.5708ZM57.9548 28.016V26.504H62.7948V28.016H62.2588V27H58.4908V28.016H57.9548ZM63.9018 27V22.8H64.4698V26.136L67.2778 22.8H67.7818V27H67.2138V23.656L64.4138 27H63.9018Z" fill="#00008B"/>
</svg>
