<svg width="93" height="46" viewBox="0 0 93 46" fill="none" xmlns="http://www.w3.org/2000/svg">
<rect x="0.660645" width="91.7144" height="46" rx="23" fill="#D9D9D9"/>
<g clip-path="url(#clip0_26_35)">
<path d="M75.7636 22.3921V23.7534H76.7013V25.104C76.7043 25.2247 76.6978 25.3549 76.6775 25.459C76.6402 25.7109 76.4056 26.1399 75.74 26.1399C75.0783 26.1399 74.8479 25.7109 74.808 25.459C74.7912 25.3549 74.784 25.2247 74.784 25.104V20.8381C74.784 20.6872 74.794 20.5221 74.8254 20.397C74.8708 20.1697 75.0683 19.7213 75.735 19.7213C76.4349 19.7213 76.6096 20.194 76.6496 20.397C76.6759 20.5315 76.6775 20.7571 76.6775 20.7571V21.2751H78.9817V20.9689C78.9817 20.9689 78.9921 20.6493 78.9642 20.3511C78.791 18.6002 77.3769 18.0463 75.7553 18.0463C74.1309 18.0463 72.7454 18.6054 72.5436 20.3511C72.5254 20.5108 72.4976 20.798 72.4976 20.9689V24.8931C72.4976 25.064 72.503 25.1963 72.534 25.5086C72.6843 27.2114 74.1309 27.8149 75.7489 27.8149C77.3769 27.8149 78.8134 27.2114 78.9664 25.5086C78.9935 25.1963 78.9963 25.064 79 24.8931V22.3921H75.7636ZM59.8758 18.2974H57.5618V25.2024C57.5655 25.3227 57.5618 25.4579 57.5415 25.557C57.4932 25.7888 57.3007 26.2349 56.6623 26.2349C56.0321 26.2349 55.8345 25.7888 55.7898 25.557C55.7667 25.4579 55.7638 25.3227 55.7667 25.2024V18.2974H53.4534V24.9881C53.4505 25.1606 53.4638 25.5129 53.4738 25.6052C53.6334 27.3487 54.9804 27.9148 56.6623 27.9148C58.3474 27.9148 59.6936 27.3487 59.8562 25.6052C59.869 25.5129 59.8858 25.1606 59.8758 24.9881V18.2974ZM38.6149 18.2974L37.4606 25.5935L36.3071 18.2974H32.5745L32.3765 27.6312H34.6632L34.7251 18.9906L36.2985 27.6312H38.6185L40.1933 18.9906L40.2554 27.6312H42.5479L42.3432 18.2974H38.6149ZM24.7953 18.2974L23.1004 27.6312H25.5719L26.8491 18.9906L28.0956 27.6312H30.5499L28.8622 18.2974H24.7953ZM67.9626 25.8122L65.808 18.2974H62.4127V27.5339H64.6587L64.5283 19.7786L66.8423 27.5339H70.0985V18.2974H67.8378L67.9626 25.8122ZM47.1871 20.7265C47.1465 20.5422 47.1582 20.3463 47.1793 20.244C47.2447 19.9452 47.4415 19.6193 48.0085 19.6193C48.5369 19.6193 48.8467 19.9554 48.8467 20.4597V21.0305H51.1024V20.3799C51.1024 18.3688 49.335 18.0529 48.0553 18.0529C46.4437 18.0529 45.1276 18.5948 44.8872 20.1081C44.8236 20.5199 44.8079 20.8854 44.909 21.3519C45.301 23.2387 48.5208 23.7861 48.9882 24.9794C49.0706 25.2054 49.047 25.4936 49.005 25.6635C48.9349 25.974 48.7302 26.2864 48.1231 26.2864C47.5538 26.2864 47.2111 25.9524 47.2111 25.4492L47.2104 24.5534H44.7825V25.2654C44.7825 27.3287 46.3666 27.9512 48.0728 27.9512C49.7069 27.9512 51.0566 27.3816 51.2731 25.8374C51.3764 25.0395 51.2985 24.5198 51.257 24.3241C50.8787 22.3889 47.4469 21.8067 47.1871 20.7265ZM17.4319 20.7036C17.3876 20.5155 17.3979 20.3169 17.4226 20.2133C17.4851 19.916 17.6831 19.5843 18.26 19.5843C18.7952 19.5843 19.1103 19.9236 19.1103 20.432V21.0097H21.3924V20.354C21.3924 18.3236 19.5979 18 18.3043 18C16.6792 18 15.3513 18.5504 15.1083 20.0745C15.0418 20.4929 15.0304 20.861 15.1265 21.3326C15.5227 23.2409 18.7744 23.7927 19.2475 25.0002C19.3361 25.2247 19.3093 25.5129 19.2653 25.6894C19.1903 26.0031 18.9838 26.3199 18.3718 26.3199C17.8002 26.3199 17.4583 25.9802 17.4583 25.47L17.4552 24.5719H15V25.2856C15 27.3725 16.6066 28 18.3261 28C19.9792 28 21.3367 27.4253 21.5581 25.8633C21.6682 25.0581 21.5856 24.5341 21.5485 24.3354C21.1623 22.3764 17.6924 21.7962 17.4319 20.7036Z" fill="#1428A0"/>
</g>
<defs>
<clipPath id="clip0_26_35">
<rect width="64" height="10" fill="white" transform="translate(15 18)"/>
</clipPath>
</defs>
</svg>
