<svg width="93" height="46" viewBox="0 0 93 46" fill="none" xmlns="http://www.w3.org/2000/svg">
<rect x="0.625" width="91.7144" height="46" rx="23" fill="#D9D9D9"/>
<g clip-path="url(#clip0_28_59)">
<path fill-rule="evenodd" clip-rule="evenodd" d="M58.8955 36.9979H32.0982C31.4902 36.9979 30.9973 36.505 30.9973 35.897V9.09783C30.9973 8.48977 31.4902 7.99716 32.0982 7.99716H58.8955C59.5035 7.99716 59.9963 8.48977 59.9963 9.09783V35.897C59.9963 36.505 59.5035 36.9979 58.8955 36.9979Z" fill="#FF6700"/>
<path d="M53.7365 17.1184H51.4551C51.3574 17.1184 51.2783 17.1961 51.2783 17.2919V27.7018C51.2783 27.7967 51.3574 27.8744 51.4551 27.8744H53.7365C53.8334 27.8744 53.9136 27.7967 53.9136 27.7018V17.2919C53.9136 17.1961 53.8334 17.1184 53.7365 17.1184Z" fill="white"/>
<path d="M45.9468 17.1183H37.2565C37.1589 17.1183 37.0803 17.196 37.0803 17.2918V27.7016C37.0803 27.7966 37.1589 27.8743 37.2565 27.8743H39.5385C39.6356 27.8743 39.7161 27.7966 39.7161 27.7016V19.5314C39.7161 19.4371 39.7947 19.3588 39.8923 19.3588H44.8079C46.1902 19.3588 46.5826 20.4176 46.5826 21.1006V27.7016C46.5826 27.7966 46.6619 27.8743 46.7596 27.8743H49.0402C49.1373 27.8743 49.217 27.7966 49.217 27.7016V20.3169C49.217 19.7077 49.1437 18.8318 48.3578 18.0608C47.5355 17.256 46.7854 17.1183 45.9468 17.1183Z" fill="white"/>
<path d="M44.3483 21.2648H41.9525C41.8549 21.2648 41.7747 21.3425 41.7747 21.4377V27.7027C41.7747 27.7973 41.8549 27.875 41.9525 27.875H44.3483C44.4451 27.875 44.5245 27.7973 44.5245 27.7027V21.4377C44.5245 21.3425 44.4451 21.2648 44.3483 21.2648Z" fill="white"/>
</g>
<defs>
<clipPath id="clip0_28_59">
<rect width="29" height="29" fill="white" transform="translate(31 8)"/>
</clipPath>
</defs>
</svg>
