<svg width="30" height="30" viewBox="0 0 30 30" fill="none" xmlns="http://www.w3.org/2000/svg">
<rect width="30" height="30" rx="7" fill="#FF6809"/>
<path d="M22.5506 20.3713H10.4261C9.48672 20.3713 8.7462 19.6922 8.66479 18.7564C8.60947 18.1173 8.87739 17.5433 9.34762 17.1919L7.44719 8.68257C7.39476 8.44838 7.45166 8.20338 7.60156 8.01607C7.75146 7.82877 7.97854 7.71997 8.21827 7.71997H26.0509C26.3069 7.71997 26.5472 7.84405 26.6952 8.05269C26.8436 8.26133 26.8812 8.52899 26.7969 8.77056L24.7426 14.6568C24.4552 15.4814 23.7421 16.087 22.882 16.2372L10.3979 18.4187C10.3951 18.419 10.3924 18.4195 10.3895 18.42C10.3295 18.4305 10.2254 18.4532 10.2399 18.62C10.2546 18.7907 10.3663 18.7907 10.4264 18.7907H22.5508C22.9874 18.7907 23.3412 19.1445 23.3412 19.581C23.3412 20.0175 22.9871 20.3713 22.5506 20.3713Z" fill="#F5F5F7"/>
<path d="M10.5739 24.8129C11.5196 24.8129 12.2863 24.0462 12.2863 23.1005C12.2863 22.1548 11.5196 21.3882 10.5739 21.3882C9.62821 21.3882 8.86157 22.1548 8.86157 23.1005C8.86157 24.0462 9.62821 24.8129 10.5739 24.8129Z" fill="#F5F5F7"/>
<path d="M21.122 24.8129C22.0677 24.8129 22.8344 24.0462 22.8344 23.1005C22.8344 22.1548 22.0677 21.3882 21.122 21.3882C20.1763 21.3882 19.4097 22.1548 19.4097 23.1005C19.4097 24.0462 20.1763 24.8129 21.122 24.8129Z" fill="#F5F5F7"/>
<path d="M8.21776 9.30082C7.8558 9.30082 7.5294 9.05055 7.44721 8.68253L7.08498 7.06107C6.93903 6.40775 6.36948 5.95147 5.69982 5.95147H3.92215C3.48563 5.95147 3.13184 5.59768 3.13184 5.16116C3.13184 4.72465 3.48563 4.37085 3.92215 4.37085H5.70009C7.11527 4.37085 8.31918 5.33556 8.62767 6.7165L8.9899 8.33795C9.085 8.76393 8.81682 9.18649 8.39084 9.28159C8.33262 9.2945 8.27466 9.30082 8.21776 9.30082Z" fill="#F5F5F7"/>
</svg>
