<svg width="16" height="16" viewBox="0 0 16 16" fill="none" xmlns="http://www.w3.org/2000/svg">
<path d="M11.6875 0C10.8239 0 10.0321 0.309988 9.33423 0.921375C8.66516 1.50751 8.21971 2.25407 7.95745 2.79694C7.69518 2.25404 7.24974 1.50751 6.58066 0.921375C5.88276 0.309988 5.091 0 4.2274 0C1.81741 0 0 2.23291 0 5.19397C0 8.39292 2.26734 10.5816 5.69981 13.895C6.28269 14.4577 6.94339 15.0955 7.63006 15.7757C7.72058 15.8655 7.83683 15.9149 7.95745 15.9149C8.07806 15.9149 8.19431 15.8655 8.28483 15.7757C8.97157 15.0954 9.63224 14.4576 10.2155 13.8946C13.6476 10.5816 15.9149 8.39292 15.9149 5.19397C15.9149 2.23291 14.0975 0 11.6875 0Z" fill="white"/>
</svg>
